<svg width="101" height="101" viewBox="0 0 101 101" fill="none" xmlns="http://www.w3.org/2000/svg">
<path d="M98.6613 97.3808C98.1393 98.9451 96.6751 100 95.026 100H6.00001C3.23858 100 1 97.7614 1 95V78.5744C1 76.3748 2.78315 74.5916 4.98277 74.5916C7.08087 74.5916 8.76794 72.9221 9.53429 70.969C9.69307 70.5643 9.87323 70.1674 10.0739 69.7823C10.8184 68.3554 10.9503 66.5882 10.0158 65.2778C10.0037 65.2608 9.99153 65.2438 9.97941 65.2268C9.56933 64.6516 9.18289 64.0206 8.79644 63.2966C7.47847 60.8302 7.66916 57.9544 9.29258 55.7908C10.9109 53.6357 13.5941 52.6579 16.2959 53.2398C17.9345 53.5917 19.4043 53.9554 20.7898 54.3529C21.101 54.4418 21.3921 54.548 21.6647 54.6667C22.0843 54.8495 22.5828 54.787 22.9077 54.4646C23.1152 54.2599 23.3498 54.0264 23.451 53.9063C23.7902 53.5003 24.1834 52.8778 24.5986 52.2198L24.7673 51.9525C25.0424 51.5161 25.2837 51.0779 25.4812 50.6516C25.7714 50.024 26.0347 49.3728 26.2608 48.7147C26.3046 48.5857 26.3168 48.4483 26.3018 48.3129C25.964 45.2612 26.9581 42.2361 29.0756 39.9182C29.1347 39.8336 29.2461 39.6661 29.3287 39.5376C29.5903 39.1367 29.916 38.6376 30.3497 38.098C31.2357 36.9934 32.2296 36.107 33.3012 35.4658C33.9864 35.0564 34.6293 34.735 35.1963 34.4525C35.4212 34.341 35.6375 34.2329 35.8298 34.1319C35.9797 34.0531 36.1212 33.9592 36.2494 33.8486C36.64 33.5229 36.9586 33.1176 37.1704 32.6552C37.2155 32.5568 37.2615 32.4572 37.3086 32.3565C37.8774 31.1385 37.9486 29.7433 37.6095 28.4426C37.0302 26.22 36.8761 23.7586 37.137 21.0226C37.3614 18.6814 37.812 16.5043 38.2491 14.3982C38.3048 14.1309 38.3605 13.8619 38.4145 13.5947C38.9551 10.9567 40.1938 8.47752 42.199 6.02464C42.2441 5.96949 42.2857 5.91119 42.3228 5.85037C42.4291 5.67613 42.5371 5.50189 42.6468 5.33273L42.9675 4.84135C43.6543 3.78898 44.7122 3.03382 45.9306 2.72618L46.4944 2.58382C46.5506 2.57056 46.6058 2.55159 46.6587 2.52861C50.7898 0.736818 54.7536 0.88894 57.4314 1.17299C60.2023 1.46734 62.2831 2.59735 63.8035 3.42118C64.0702 3.56666 64.3233 3.70368 64.5545 3.8221C66.6656 4.90643 67.6562 6.65558 68.1338 7.49633L68.1878 7.59106C68.5575 8.23726 69.0394 8.81253 69.5533 9.35123C70.3869 10.2251 71.0162 11.3085 71.3451 12.5154C71.438 12.8554 71.5493 13.2276 71.6692 13.6217C71.8238 14.1355 71.9926 14.6946 72.1509 15.294C72.4751 16.5221 73.1608 17.6307 74.031 18.556C74.3813 18.9286 74.6776 19.2812 74.9295 19.5814C75.4762 20.2326 76.1428 20.7063 77.0305 21.0768C77.7544 21.3796 78.3721 21.7094 78.8817 21.9919C81.24 23.302 82.7839 25.2568 83.3929 27.4916C83.5075 27.9121 83.7185 28.3013 84.0028 28.6315C84.2834 28.9574 84.63 29.2222 85.0245 29.3934C86.5924 30.0735 87.9995 31.1672 89.0981 32.6087C90.3136 34.2053 91.7698 36.3357 92.6624 39.0653C92.7139 39.2227 92.7758 39.3767 92.8444 39.5274C93.0149 39.9047 93.1904 40.2819 93.3642 40.6608C93.9143 41.8534 94.483 43.0883 95.0078 44.4129C95.584 45.868 95.7279 47.524 95.453 49.074C95.3409 49.7059 95.2665 50.3472 95.2934 50.9885C95.3181 51.5785 95.3176 52.1456 95.3099 52.6884C95.3065 52.9996 95.2947 53.3109 95.2829 53.6204C95.2653 54.0789 95.3756 54.5294 95.5314 54.961C96.1512 56.6776 95.9635 58.2177 95.8854 58.8696L95.8769 58.9423C95.7385 60.6526 95.9866 62.6081 96.2499 64.6804C96.2531 64.7092 96.2644 64.7366 96.2821 64.7595C97.3372 66.1318 97.8621 67.5145 98.1332 68.3833C98.9297 70.3 98.6141 72.0068 98.3171 72.9288C98.2597 73.1538 98.2581 73.9015 98.2581 74.4479C98.2581 75.473 98.2547 76.7468 98.01 78.1525C97.8362 79.1421 97.794 80.0252 97.8767 80.9201C97.9606 81.4399 98.1246 82.5037 97.874 83.8117C97.8715 83.8251 97.8749 83.8392 97.8834 83.85C99.6199 86.022 100.322 88.7151 99.8629 91.4319C99.6908 92.4536 99.4461 93.3756 99.2318 94.1875C99.1558 94.4717 99.0799 94.7576 99.009 95.0486L98.8341 96.5976C98.8041 96.864 98.7461 97.1265 98.6613 97.3808Z" fill="#F6F5F4"/>
<path d="M98.6613 97.3808C98.1393 98.9451 96.6751 100 95.026 100H6.00001C3.23858 100 1 97.7614 1 95V78.5744C1 76.3748 2.78315 74.5916 4.98277 74.5916C7.08087 74.5916 8.76794 72.9221 9.53429 70.969C9.69307 70.5643 9.87323 70.1674 10.0739 69.7823C10.8184 68.3554 10.9503 66.5882 10.0158 65.2778C10.0037 65.2608 9.99153 65.2438 9.97941 65.2268C9.56933 64.6516 9.18289 64.0206 8.79644 63.2966C7.47847 60.8302 7.66916 57.9544 9.29258 55.7908C10.9109 53.6357 13.5941 52.6579 16.2959 53.2398C17.9345 53.5917 19.4043 53.9554 20.7898 54.3529C21.101 54.4418 21.3921 54.548 21.6647 54.6667C22.0843 54.8495 22.5828 54.787 22.9077 54.4646C23.1152 54.2599 23.3498 54.0264 23.451 53.9063C23.7902 53.5003 24.1834 52.8778 24.5986 52.2198L24.7673 51.9525C25.0424 51.5161 25.2837 51.0779 25.4812 50.6516C25.7714 50.024 26.0347 49.3728 26.2608 48.7147C26.3046 48.5857 26.3168 48.4483 26.3018 48.3129C25.964 45.2612 26.9581 42.2361 29.0756 39.9182C29.1347 39.8336 29.2461 39.6661 29.3287 39.5376C29.5903 39.1367 29.916 38.6376 30.3497 38.098C31.2357 36.9934 32.2296 36.107 33.3012 35.4658C33.9864 35.0564 34.6293 34.735 35.1963 34.4525C35.4212 34.341 35.6375 34.2329 35.8298 34.1319C35.9797 34.0531 36.1212 33.9592 36.2494 33.8486C36.64 33.5229 36.9586 33.1176 37.1704 32.6552C37.2155 32.5568 37.2615 32.4572 37.3086 32.3565C37.8774 31.1385 37.9486 29.7433 37.6095 28.4426C37.0302 26.22 36.8761 23.7586 37.137 21.0226C37.3614 18.6814 37.812 16.5043 38.2491 14.3982C38.3048 14.1309 38.3605 13.8619 38.4145 13.5947C38.9551 10.9567 40.1938 8.47752 42.199 6.02464C42.2441 5.96949 42.2857 5.91119 42.3228 5.85037C42.4291 5.67613 42.5371 5.50189 42.6468 5.33273L42.9675 4.84135C43.6543 3.78898 44.7122 3.03382 45.9306 2.72618L46.4944 2.58382C46.5506 2.57056 46.6058 2.55159 46.6587 2.52861C50.7898 0.736818 54.7536 0.88894 57.4314 1.17299C60.2023 1.46734 62.2831 2.59735 63.8035 3.42118C64.0702 3.56666 64.3233 3.70368 64.5545 3.8221C66.6656 4.90643 67.6562 6.65558 68.1338 7.49633L68.1878 7.59106C68.5575 8.23726 69.0394 8.81253 69.5533 9.35123C70.3869 10.2251 71.0162 11.3085 71.3451 12.5154C71.438 12.8554 71.5493 13.2276 71.6692 13.6217C71.8238 14.1355 71.9926 14.6946 72.1509 15.294C72.4751 16.5221 73.1608 17.6307 74.031 18.556C74.3813 18.9286 74.6776 19.2812 74.9295 19.5814C75.4762 20.2326 76.1428 20.7063 77.0305 21.0768C77.7544 21.3796 78.3721 21.7094 78.8817 21.9919C81.24 23.302 82.7839 25.2568 83.3929 27.4916C83.5075 27.9121 83.7185 28.3013 84.0028 28.6315C84.2834 28.9574 84.63 29.2222 85.0245 29.3934C86.5924 30.0735 87.9995 31.1672 89.0981 32.6087C90.3136 34.2053 91.7698 36.3357 92.6624 39.0653C92.7139 39.2227 92.7758 39.3767 92.8444 39.5274C93.0149 39.9047 93.1904 40.2819 93.3642 40.6608C93.9143 41.8534 94.483 43.0883 95.0078 44.4129C95.584 45.868 95.7279 47.524 95.453 49.074C95.3409 49.7059 95.2665 50.3472 95.2934 50.9885C95.3181 51.5785 95.3176 52.1456 95.3099 52.6884C95.3065 52.9996 95.2947 53.3109 95.2829 53.6204C95.2653 54.0789 95.3756 54.5294 95.5314 54.961C96.1512 56.6776 95.9635 58.2177 95.8854 58.8696L95.8769 58.9423C95.7385 60.6526 95.9866 62.6081 96.2499 64.6804C96.2531 64.7092 96.2644 64.7366 96.2821 64.7595C97.3372 66.1318 97.8621 67.5145 98.1332 68.3833C98.9297 70.3 98.6141 72.0068 98.3171 72.9288C98.2597 73.1538 98.2581 73.9015 98.2581 74.4479C98.2581 75.473 98.2547 76.7468 98.01 78.1525C97.8362 79.1421 97.794 80.0252 97.8767 80.9201C97.9606 81.4399 98.1246 82.5037 97.874 83.8117C97.8715 83.8251 97.8749 83.8392 97.8834 83.85C99.6199 86.022 100.322 88.7151 99.8629 91.4319C99.6908 92.4536 99.4461 93.3756 99.2318 94.1875C99.1558 94.4717 99.0799 94.7576 99.009 95.0486L98.8341 96.5976C98.8041 96.864 98.7461 97.1265 98.6613 97.3808Z" fill="url(#paint0_linear_6599_35581)" fill-opacity="0.05"/>
<path d="M98.6613 97.3808C98.1393 98.9451 96.6751 100 95.026 100H6.00001C3.23858 100 1 97.7614 1 95V78.5744C1 76.3748 2.78315 74.5916 4.98277 74.5916C7.08087 74.5916 8.76794 72.9221 9.53429 70.969C9.69307 70.5643 9.87323 70.1674 10.0739 69.7823C10.8184 68.3554 10.9503 66.5882 10.0158 65.2778C10.0037 65.2608 9.99153 65.2438 9.97941 65.2268C9.56933 64.6516 9.18289 64.0206 8.79644 63.2966C7.47847 60.8302 7.66916 57.9544 9.29258 55.7908C10.9109 53.6357 13.5941 52.6579 16.2959 53.2398C17.9345 53.5917 19.4043 53.9554 20.7898 54.3529C21.101 54.4418 21.3921 54.548 21.6647 54.6667C22.0843 54.8495 22.5828 54.787 22.9077 54.4646C23.1152 54.2599 23.3498 54.0264 23.451 53.9063C23.7902 53.5003 24.1834 52.8778 24.5986 52.2198L24.7673 51.9525C25.0424 51.5161 25.2837 51.0779 25.4812 50.6516C25.7714 50.024 26.0347 49.3728 26.2608 48.7147C26.3046 48.5857 26.3168 48.4483 26.3018 48.3129C25.964 45.2612 26.9581 42.2361 29.0756 39.9182C29.1347 39.8336 29.2461 39.6661 29.3287 39.5376C29.5903 39.1367 29.916 38.6376 30.3497 38.098C31.2357 36.9934 32.2296 36.107 33.3012 35.4658C33.9864 35.0564 34.6293 34.735 35.1963 34.4525C35.4212 34.341 35.6375 34.2329 35.8298 34.1319C35.9797 34.0531 36.1212 33.9592 36.2494 33.8486C36.64 33.5229 36.9586 33.1176 37.1704 32.6552C37.2155 32.5568 37.2615 32.4572 37.3086 32.3565C37.8774 31.1385 37.9486 29.7433 37.6095 28.4426C37.0302 26.22 36.8761 23.7586 37.137 21.0226C37.3614 18.6814 37.812 16.5043 38.2491 14.3982C38.3048 14.1309 38.3605 13.8619 38.4145 13.5947C38.9551 10.9567 40.1938 8.47752 42.199 6.02464C42.2441 5.96949 42.2857 5.91119 42.3228 5.85037C42.4291 5.67613 42.5371 5.50189 42.6468 5.33273L42.9675 4.84135C43.6543 3.78898 44.7122 3.03382 45.9306 2.72618L46.4944 2.58382C46.5506 2.57056 46.6058 2.55159 46.6587 2.52861C50.7898 0.736818 54.7536 0.88894 57.4314 1.17299C60.2023 1.46734 62.2831 2.59735 63.8035 3.42118C64.0702 3.56666 64.3233 3.70368 64.5545 3.8221C66.6656 4.90643 67.6562 6.65558 68.1338 7.49633L68.1878 7.59106C68.5575 8.23726 69.0394 8.81253 69.5533 9.35123C70.3869 10.2251 71.0162 11.3085 71.3451 12.5154C71.438 12.8554 71.5493 13.2276 71.6692 13.6217C71.8238 14.1355 71.9926 14.6946 72.1509 15.294C72.4751 16.5221 73.1608 17.6307 74.031 18.556C74.3813 18.9286 74.6776 19.2812 74.9295 19.5814C75.4762 20.2326 76.1428 20.7063 77.0305 21.0768C77.7544 21.3796 78.3721 21.7094 78.8817 21.9919C81.24 23.302 82.7839 25.2568 83.3929 27.4916C83.5075 27.9121 83.7185 28.3013 84.0028 28.6315C84.2834 28.9574 84.63 29.2222 85.0245 29.3934C86.5924 30.0735 87.9995 31.1672 89.0981 32.6087C90.3136 34.2053 91.7698 36.3357 92.6624 39.0653C92.7139 39.2227 92.7758 39.3767 92.8444 39.5274C93.0149 39.9047 93.1904 40.2819 93.3642 40.6608C93.9143 41.8534 94.483 43.0883 95.0078 44.4129C95.584 45.868 95.7279 47.524 95.453 49.074C95.3409 49.7059 95.2665 50.3472 95.2934 50.9885C95.3181 51.5785 95.3176 52.1456 95.3099 52.6884C95.3065 52.9996 95.2947 53.3109 95.2829 53.6204C95.2653 54.0789 95.3756 54.5294 95.5314 54.961C96.1512 56.6776 95.9635 58.2177 95.8854 58.8696L95.8769 58.9423C95.7385 60.6526 95.9866 62.6081 96.2499 64.6804C96.2531 64.7092 96.2644 64.7366 96.2821 64.7595C97.3372 66.1318 97.8621 67.5145 98.1332 68.3833C98.9297 70.3 98.6141 72.0068 98.3171 72.9288C98.2597 73.1538 98.2581 73.9015 98.2581 74.4479C98.2581 75.473 98.2547 76.7468 98.01 78.1525C97.8362 79.1421 97.794 80.0252 97.8767 80.9201C97.9606 81.4399 98.1246 82.5037 97.874 83.8117C97.8715 83.8251 97.8749 83.8392 97.8834 83.85C99.6199 86.022 100.322 88.7151 99.8629 91.4319C99.6908 92.4536 99.4461 93.3756 99.2318 94.1875C99.1558 94.4717 99.0799 94.7576 99.009 95.0486L98.8341 96.5976C98.8041 96.864 98.7461 97.1265 98.6613 97.3808Z" stroke="url(#paint1_linear_6599_35581)"/>
<defs>
<linearGradient id="paint0_linear_6599_35581" x1="63.5779" y1="-88.6805" x2="-60.7454" y2="-50.2573" gradientUnits="userSpaceOnUse">
<stop stop-color="#F26F56"/>
<stop offset="1" stop-color="#F49756"/>
</linearGradient>
<linearGradient id="paint1_linear_6599_35581" x1="63.5779" y1="-88.6805" x2="-60.7454" y2="-50.2573" gradientUnits="userSpaceOnUse">
<stop stop-color="#F26F56"/>
<stop offset="1" stop-color="#F49756"/>
</linearGradient>
</defs>
</svg>
