<svg viewBox="0 0 10 9" fill="none" xmlns="http://www.w3.org/2000/svg">
  <path
    d="M4.68084 0.381342L4.30319 0.744366C4.20878 0.839899 4.20878 0.992751 4.30319 1.06918L7.22998 4.03069H0.791043C0.658866 4.03069 0.564453 4.14533 0.564453 4.25997V4.79495C0.564453 4.9287 0.658866 5.02423 0.791043 5.02423H7.22998L4.30319 8.00485C4.20878 8.08128 4.20878 8.23413 4.30319 8.32966L4.68084 8.69269C4.75637 8.78822 4.90743 8.78822 5.00184 8.69269L8.94829 4.69942C9.0427 4.60389 9.0427 4.47014 8.94829 4.37461L5.00184 0.381342C4.90743 0.285809 4.75637 0.285809 4.68084 0.381342Z"
    fill="url(#paint0_linear_3456_1868)"
  />
  <defs>
    <linearGradient
      id="paint0_linear_3456_1868"
      x1="0.564321"
      y1="8.76429"
      x2="9.019"
      y2="0.309589"
      gradientUnits="userSpaceOnUse"
    >
      <stop stop-color="currentColor" />
      <stop offset="1" stop-color="currentColor" />
    </linearGradient>
  </defs>
</svg>
