<svg viewBox="0 0 60 60" fill="none" xmlns="http://www.w3.org/2000/svg">
  <rect
    x="22.7546"
    y="27.8823"
    width="2.93359"
    height="2.93359"
    transform="rotate(-12.5577 22.7546 27.8823)"
    fill="currentColor"
  />
  <rect
    x="19.8918"
    y="28.5199"
    width="2.93359"
    height="2.93359"
    transform="rotate(-12.5577 19.8918 28.5199)"
    fill="currentColor"
  />
  <rect
    x="37.0757"
    y="24.6918"
    width="2.93359"
    height="2.93359"
    transform="rotate(-12.5577 37.0757 24.6918)"
    fill="currentColor"
  />
  <rect
    x="37.71"
    y="27.5559"
    width="2.93359"
    height="2.93359"
    transform="rotate(-12.5577 37.71 27.5559)"
    fill="currentColor"
  />
  <rect
    x="20.5261"
    y="31.3838"
    width="2.93359"
    height="2.93359"
    transform="rotate(-12.5577 20.5261 31.3838)"
    fill="currentColor"
  />
  <rect
    x="35.4822"
    y="31.0587"
    width="2.93359"
    height="5.86718"
    transform="rotate(-12.5577 35.4822 31.0587)"
    fill="currentColor"
  />
  <rect
    x="24.0276"
    y="33.6101"
    width="2.93359"
    height="5.86718"
    transform="rotate(-12.5577 24.0276 33.6101)"
    fill="currentColor"
  />
  <rect
    x="25.3074"
    y="39.3342"
    width="2.93359"
    height="2.93359"
    transform="rotate(-12.5577 25.3074 39.3342)"
    fill="currentColor"
  />
  <rect
    x="28.48"
    y="26.6069"
    width="2.93359"
    height="2.93359"
    transform="rotate(-12.5577 28.48 26.6069)"
    fill="currentColor"
  />
  <rect
    x="27.842"
    y="23.7446"
    width="2.93359"
    height="2.93359"
    transform="rotate(-12.5577 27.842 23.7446)"
    fill="currentColor"
  />
  <rect
    x="27.2034"
    y="20.8805"
    width="2.93359"
    height="2.93359"
    transform="rotate(-12.5577 27.2034 20.8805)"
    fill="currentColor"
  />
  <rect
    x="30.7043"
    y="23.106"
    width="2.93359"
    height="2.93359"
    transform="rotate(-12.5577 30.7043 23.106)"
    fill="currentColor"
  />
  <rect
    x="29.4314"
    y="17.3784"
    width="2.93359"
    height="2.93359"
    transform="rotate(-12.5577 29.4314 17.3784)"
    fill="currentColor"
  />
  <rect
    x="24.9756"
    y="24.3833"
    width="2.93359"
    height="2.93359"
    transform="rotate(-12.5577 24.9756 24.3833)"
    fill="currentColor"
  />
  <rect
    x="23.7061"
    y="18.6538"
    width="2.93359"
    height="2.93359"
    transform="rotate(-12.5577 23.7061 18.6538)"
    fill="currentColor"
  />
  <rect
    x="26.2559"
    y="30.1086"
    width="8.80077"
    height="5.86718"
    transform="rotate(-12.5577 26.2559 30.1086)"
    fill="currentColor"
  />
  <rect
    x="34.2126"
    y="25.3287"
    width="2.93359"
    height="2.93359"
    transform="rotate(-12.5577 34.2126 25.3287)"
    fill="currentColor"
  />
  <rect
    x="36.7585"
    y="36.7844"
    width="2.93359"
    height="2.93359"
    transform="rotate(-12.5577 36.7585 36.7844)"
    fill="currentColor"
  />
  <rect
    x="30.3948"
    y="35.1965"
    width="2.93359"
    height="5.86718"
    transform="rotate(-12.5577 30.3948 35.1965)"
    fill="currentColor"
  />
  <path
    d="M4.32513 28.1808C4.34457 27.7735 4.26022 27.402 4.19526 27.1591L3.30424 27.1166C3.04457 27.1042 3.04093 27.0734 2.9813 26.9327L2.96312 26.886L2.80528 26.8784L2.75282 27.9782L2.91066 27.9857L2.9708 27.7947C3.00185 27.6788 3.02876 27.6495 3.27825 27.6614L3.98089 27.6949C4.04198 27.805 4.08561 27.9601 4.07492 28.1842C4.04334 28.8461 3.54484 29.0264 2.36359 28.9701C1.27909 28.9183 0.88924 28.6395 0.919115 28.0132C0.936602 27.6466 1.03577 27.6003 1.17786 27.5101C1.28333 27.4386 1.48676 27.3463 1.82257 27.2602L1.83059 27.0922L0.814449 27.105C0.742906 27.321 0.695364 27.5688 0.676662 27.9608C0.637072 28.7907 1.09356 29.4912 2.4581 29.5563C3.69535 29.6154 4.2802 29.1227 4.32513 28.1808Z"
    fill="currentColor"
  />
  <path
    d="M1.85328 25.1784L1.85652 25.1583L3.19871 24.9659L3.07104 25.7611L1.85328 25.1784ZM4.3166 25.9456L4.25955 26.0758C4.20574 26.1859 4.16746 26.2314 4.06177 26.2144C3.98627 26.2023 3.92911 26.1725 3.79969 26.1104L3.28702 25.8629L3.4365 24.9318L4.00169 24.8522C4.14404 24.8337 4.23445 24.8173 4.30994 24.8294C4.39047 24.8423 4.41501 24.8824 4.43166 25.0038L4.44749 25.1302L4.60351 25.1553L4.78209 24.043L4.62606 24.018L4.5912 24.0743C4.53397 24.1735 4.4975 24.24 4.13829 24.2907L1.09308 24.7363L1.04379 25.0433L3.7476 26.3705C4.11574 26.5535 4.14209 26.6145 4.16377 26.7367L4.17681 26.8163L4.33283 26.8413L4.47262 25.9706L4.3166 25.9456Z"
    fill="currentColor"
  />
  <path
    d="M4.8582 23.7622L5.47757 21.5219L4.413 21.1641L4.36682 21.3311C4.67019 21.5155 4.82836 21.6703 4.91388 21.7627C5.0778 21.9349 5.10248 22.0369 5.00061 22.4054C4.88108 22.8378 4.84889 22.8394 4.39689 22.7145L2.17618 22.1005C1.93053 22.0326 1.91767 22.0026 1.9257 21.8779L1.93362 21.658L1.78622 21.6172L1.45345 22.8209L1.60084 22.8617L1.69395 22.697C1.74704 22.6007 1.77756 22.5668 2.02813 22.6361L4.45518 23.307C4.69592 23.3736 4.72436 23.4238 4.71058 23.531L4.7059 23.7201L4.8582 23.7622Z"
    fill="currentColor"
  />
  <path
    d="M3.4926 19.1052L3.50015 19.0863L4.85199 19.1911L4.55404 19.9394L3.4926 19.1052ZM5.72942 20.391L5.64535 20.5056C5.56883 20.6013 5.52156 20.6374 5.42211 20.5978C5.35107 20.5695 5.30179 20.5279 5.18901 20.4391L4.74263 20.0858L5.0915 19.2097L5.66045 19.2552C5.8034 19.2682 5.89522 19.2719 5.96626 19.3001C6.04203 19.3303 6.05725 19.3748 6.04702 19.4969L6.03491 19.6238L6.18172 19.6822L6.59848 18.6356L6.45167 18.5772L6.40536 18.6246C6.32787 18.7089 6.27779 18.7658 5.91616 18.737L2.84707 18.508L2.73204 18.7969L5.08148 20.6816C5.40087 20.9405 5.41328 21.0058 5.40779 21.1298L5.40318 21.2102L5.54999 21.2687L5.87623 20.4494L5.72942 20.391Z"
    fill="currentColor"
  />
  <path
    d="M7.43367 17.198C7.60775 16.8691 7.67768 16.5082 7.66945 16.2731L6.87759 15.8078L6.80844 15.9385C7.01357 16.1393 7.09307 16.2506 7.22957 16.4613C7.34618 16.6441 7.39098 16.7774 7.22167 17.0973C6.95459 17.6019 6.45162 17.6586 5.35236 17.0768C4.32518 16.5331 4.146 16.098 4.42739 15.5663C4.55378 15.3276 4.62373 15.2608 4.8087 15.2491C5.01646 15.238 5.30054 15.2787 5.57561 15.3148L5.64954 15.1751L4.73843 14.739C4.58687 14.8837 4.40377 15.1097 4.244 15.4116C3.85292 16.1504 3.96084 17.0035 5.16373 17.6402C6.29452 18.2387 7.03544 17.9503 7.43367 17.198Z"
    fill="currentColor"
  />
  <path
    d="M8.34428 15.5258L9.164 14.3203L9.03333 14.2314L8.84062 14.4333C8.75058 14.5385 8.6968 14.5451 8.49025 14.4046L6.16766 12.8253L6.20492 12.7706C6.42275 12.4502 6.46119 12.4209 6.74512 12.4475C6.94711 12.4677 7.0852 12.5185 7.36863 12.6002L7.46322 12.4611L6.54379 11.8914L5.12217 13.9822L5.99001 14.6278L6.08459 14.4886C5.90434 14.2551 5.80638 14.1454 5.7133 13.965C5.57554 13.7234 5.60302 13.6558 5.81512 13.3438L5.85525 13.2848L8.17784 14.8641C8.38439 15.0045 8.38658 15.0738 8.33044 15.1836L8.2136 15.437L8.34428 15.5258Z"
    fill="currentColor"
  />
  <path
    d="M9.91382 13.3315L11.1118 11.928L10.98 11.8155L10.7504 12.0217C10.5308 12.2162 10.4695 12.2644 10.2756 12.0989L8.38366 10.484C8.1898 10.3185 8.22781 10.2504 8.38543 10.003L8.55298 9.74387L8.42503 9.63466L7.22705 11.0381L7.35499 11.1473L7.54429 10.9805C7.75732 10.7938 7.82521 10.7378 8.02294 10.9066L9.91492 12.5215C10.1126 12.6903 10.068 12.7662 9.91702 13.0059L9.782 13.219L9.91382 13.3315Z"
    fill="currentColor"
  />
  <path
    d="M12.6887 10.4621C12.9596 10.207 13.1424 9.88801 13.2105 9.66288L12.6113 8.96685L12.5036 9.06817C12.6329 9.3245 12.6722 9.4555 12.7334 9.69895C12.7847 9.90965 12.7841 10.0503 12.5205 10.2983C12.1048 10.6897 11.6105 10.581 10.758 9.67533C9.96138 8.82909 9.9323 8.35943 10.3703 7.94715C10.567 7.76197 10.6548 7.72135 10.8336 7.77003C11.0338 7.82656 11.2895 7.95689 11.5382 8.0798L11.6533 7.97149L10.9318 7.26454C10.7416 7.35256 10.4953 7.50739 10.2467 7.74148C9.63796 8.31447 9.46467 9.15666 10.3975 10.1476C11.2745 11.0793 12.0689 11.0456 12.6887 10.4621Z"
    fill="currentColor"
  />
  <path
    d="M12.8905 6.68107L12.9068 6.6688L14.0077 7.46023L13.3646 7.94506L12.8905 6.68107ZM14.1348 8.94121L14.0034 8.99557C13.8883 9.03766 13.8292 9.04392 13.7648 8.95845C13.7187 8.89739 13.6982 8.83627 13.6479 8.70183L13.4498 8.16812L14.2028 7.60043L14.6655 7.93468C14.7809 8.02003 14.8575 8.07082 14.9035 8.13187C14.9526 8.19699 14.9425 8.2429 14.8704 8.34196L14.7942 8.4441L14.8893 8.57028L15.7888 7.89213L15.6937 7.76595L15.6295 7.78242C15.5195 7.8143 15.4472 7.83691 15.153 7.62457L12.6488 5.83551L12.4005 6.02269L13.4301 8.85325C13.5687 9.24031 13.5454 9.30256 13.4763 9.40569L13.4306 9.47207L13.5258 9.59825L14.2299 9.06739L14.1348 8.94121Z"
    fill="currentColor"
  />
  <path
    d="M19.9451 5.67232L20.1938 5.55417L18.9073 2.84705C18.7738 2.56621 18.8133 2.53052 18.9201 2.43461L19.0199 2.34769L18.9543 2.20957L18.0979 2.61651L18.1636 2.75463L18.3584 2.70153C18.5121 2.65673 18.555 2.67583 18.6863 2.95207L19.5068 4.67855L19.4883 4.6873L17.2738 3.00814L16.4175 3.41509L16.4831 3.55321L16.6685 3.51588C16.7762 3.49295 16.8218 3.49386 16.9333 3.72867L17.9923 5.95698C18.1235 6.23322 18.086 6.28491 17.9841 6.36723L17.8659 6.4629L17.9337 6.60562L18.7854 6.20087L18.7176 6.05815L18.5411 6.10249C18.3899 6.14051 18.3445 6.1282 18.2133 5.85196L17.1346 3.58221L17.153 3.57346L19.9451 5.67232Z"
    fill="currentColor"
  />
  <path
    d="M20.626 5.34952L22.954 4.54848L22.6701 3.51954L22.511 3.57427C22.5123 3.8757 22.5053 4.15303 22.4678 4.27913C22.4102 4.48763 22.3364 4.52381 21.9701 4.64985C21.464 4.82399 21.39 4.84405 21.2126 4.32831L20.9057 3.4366L21.0552 3.38519C21.407 3.26412 21.542 3.21768 21.6464 3.34886C21.7442 3.46076 21.7817 3.50715 21.8717 3.6433L22.0259 3.59023L21.618 2.4045L21.4637 2.45757C21.4814 2.6186 21.4822 2.6992 21.4673 2.8283C21.4559 2.98316 21.3018 3.05235 20.9789 3.16347L20.8294 3.21488L20.4032 1.97614C20.472 1.9255 20.6438 1.84486 20.933 1.74535C21.28 1.62594 21.3653 1.60738 21.5423 1.74592C21.6235 1.80962 21.7326 1.92302 21.9055 2.12769L22.0645 2.07296L21.7179 1.23806L19.4766 2.00925L19.5264 2.15385L19.7148 2.13752C19.8244 2.1268 19.8695 2.13281 19.9541 2.37863L20.7734 4.75972C20.8547 4.9959 20.8294 5.04773 20.7331 5.09702L20.5745 5.2001L20.626 5.34952Z"
    fill="currentColor"
  />
  <path
    d="M23.8746 4.31491L25.2968 3.99462L25.2621 3.84047L24.9835 3.85619C24.8458 3.8715 24.8021 3.83956 24.7472 3.59589L24.1301 0.855866L24.1948 0.841307C24.5727 0.756196 24.6208 0.761035 24.81 0.974466C24.9436 1.12724 25.0098 1.25864 25.1609 1.51198L25.325 1.47503L25.0429 0.430869L22.5763 0.986333L22.769 2.05065L22.9331 2.01369C22.961 1.72003 22.9645 1.57295 23.0198 1.37763C23.0842 1.10708 23.1505 1.07648 23.5185 0.993612L23.5881 0.977934L24.2052 3.71796C24.26 3.96163 24.2143 4.01373 24.0983 4.05553L23.8398 4.16076L23.8746 4.31491Z"
    fill="currentColor"
  />
  <path
    d="M26.7073 3.76334L26.9808 3.73195L27.1816 1.50265L27.1917 1.50149L27.8569 3.63139L28.1253 3.60058L28.3368 0.61581C28.3514 0.296022 28.3787 0.221055 28.4456 0.177468L28.4691 0.15937L28.4517 0.00744629L27.8541 0.0760372L27.8716 0.22796L27.9719 0.252365C28.0569 0.278513 28.0887 0.331312 28.0985 0.417402C28.1084 0.503492 28.107 0.580616 28.1005 0.658322L27.9911 2.61034L27.981 2.6115L27.4023 0.743603C27.3784 0.669385 27.3595 0.594585 27.3502 0.51356C27.3386 0.412277 27.3671 0.347439 27.4401 0.313399L27.5627 0.263418L27.5452 0.111495L26.578 0.222519L26.5954 0.374443L26.7058 0.397685C26.796 0.423252 26.8289 0.486179 26.9131 0.727926L27.0155 1.03941L26.8618 2.73997L26.8466 2.74171L26.3074 0.905189C26.2738 0.791039 26.2555 0.721304 26.2462 0.640278C26.234 0.533932 26.2574 0.469675 26.321 0.441862L26.4384 0.392462L26.421 0.240539L25.5348 0.342263L25.5522 0.494186L25.595 0.509792C25.6599 0.538266 25.6893 0.570808 25.753 0.768723L26.7073 3.76334Z"
    fill="currentColor"
  />
  <path
    d="M30.1739 0.142645C29.4552 0.14444 28.8448 0.676092 28.8481 1.99631C28.8511 3.1636 29.3828 3.79944 30.1423 3.79755C30.861 3.79575 31.4713 3.23861 31.468 1.9184C31.4651 0.756203 30.9334 0.140747 30.1739 0.142645ZM30.144 0.392491C30.7964 0.390861 30.8851 1.19093 30.8871 2.0065C30.8898 3.09224 30.733 3.5514 30.1774 3.55278C29.5249 3.55441 29.4311 2.72378 29.429 1.9082C29.4263 0.822464 29.5833 0.393892 30.144 0.392491Z"
    fill="currentColor"
  />
  <path
    d="M33.1939 1.83734C33.0773 1.825 32.9527 1.79131 32.9477 1.79078L33.0974 0.376511C33.1755 0.364282 33.3039 0.362487 33.4813 0.381264C33.8665 0.422036 34.0186 0.535516 33.9526 1.15901C33.8968 1.68619 33.6805 1.88884 33.1939 1.83734ZM31.8811 3.53857L33.0976 3.66733L33.1143 3.51018L32.9265 3.44418C32.8075 3.40596 32.7792 3.38246 32.8066 3.12394L32.9208 2.04423L33.2757 2.08178C33.4357 2.65231 33.6662 3.23542 33.9188 3.75424L34.6538 3.83203L34.6705 3.67488L34.5824 3.63481C34.4499 3.57978 34.412 3.55014 34.3744 3.46928C34.1697 3.07855 33.9403 2.48531 33.7723 1.99082L33.7739 1.97561C34.2214 1.86407 34.4854 1.54858 34.5257 1.16841C34.5884 0.575326 34.3007 0.242453 33.5556 0.16359L32.2528 0.025714L32.2367 0.177786L32.4144 0.24272C32.5182 0.279332 32.5566 0.3039 32.5292 0.562422L32.2642 3.06654C32.2379 3.31492 32.1931 3.35118 32.085 3.35512L31.8977 3.38143L31.8811 3.53857Z"
    fill="currentColor"
  />
  <path
    d="M34.6977 3.85425L35.8974 4.11815L35.9314 3.96382L35.7521 3.8774C35.6342 3.82016 35.6175 3.80084 35.6734 3.54695L36.2143 1.08764C36.268 0.843699 36.2994 0.819304 36.4244 0.820693L36.6234 0.817499L36.6563 0.668148L35.4565 0.404246L35.4237 0.553596L35.593 0.637823C35.6921 0.68571 35.7275 0.714384 35.6717 0.96828L35.1307 3.42759C35.0771 3.67153 35.0285 3.70259 34.9207 3.69453L34.7316 3.69992L34.6977 3.85425ZM37.4457 4.4587L37.4796 4.30438L37.2964 4.21189C37.24 4.18381 37.2223 4.16947 37.1751 4.07558C36.9495 3.58234 36.6924 2.80554 36.5557 2.21701L37.4607 1.42442C37.7306 1.21761 37.809 1.14612 37.9771 1.14133L38.0472 1.13068L38.0801 0.981327L37.0695 0.759036L37.0366 0.908386L37.1723 0.979969C37.2464 1.02238 37.3113 1.08361 37.2948 1.15829C37.2828 1.21305 37.2271 1.29997 37.061 1.41478L36.0892 2.29708L36.075 2.36179C36.2107 3.0023 36.4318 3.72942 36.684 4.29117L37.4457 4.4587Z"
    fill="currentColor"
  />
  <path
    d="M41.2258 5.96647C41.5656 6.11821 41.9304 6.1639 42.1644 6.13999L42.5758 5.31885L42.4408 5.25857C42.2541 5.47664 42.1483 5.5634 41.9473 5.71365C41.7726 5.84221 41.6426 5.8958 41.3122 5.74822C40.7909 5.51541 40.7007 5.01736 41.2079 3.88171C41.6818 2.82053 42.104 2.61271 42.6532 2.85799C42.8999 2.96816 42.9712 3.0335 42.9952 3.21727C43.0201 3.42382 42.9984 3.71 42.9808 3.98686L43.1251 4.0513L43.4994 3.11312C43.3449 2.97154 43.1072 2.80394 42.7953 2.66468C42.032 2.32378 41.1881 2.4884 40.6331 3.7311C40.1114 4.89933 40.4486 5.61934 41.2258 5.96647Z"
    fill="currentColor"
  />
  <path
    d="M42.7908 6.67066L44.3819 7.60522L44.4697 7.45578L44.2266 7.26572C43.9967 7.0834 43.9385 7.03149 44.0676 6.81173L45.3275 4.66685C45.4566 4.44709 45.5302 4.47263 45.8014 4.58462L46.0858 4.70436L46.171 4.55932L44.5799 3.62476L44.4947 3.7698L44.692 3.92707C44.9131 4.10422 44.9801 4.16129 44.8484 4.38545L43.5885 6.53033C43.4569 6.75449 43.3744 6.72378 43.112 6.61695L42.8786 6.52122L42.7908 6.67066Z"
    fill="currentColor"
  />
  <path
    d="M45.3553 8.27107L46.5238 9.14285L46.6183 9.0162L46.4251 8.81483C46.3239 8.72027 46.3197 8.66625 46.4691 8.46606L48.1486 6.21493L48.2017 6.25455C48.5122 6.48622 48.5398 6.52591 48.5008 6.8084C48.4717 7.00931 48.415 7.14504 48.3209 7.42461L48.4557 7.5252L49.0651 6.63164L47.0387 5.11973L46.3557 5.95843L46.4906 6.05902C46.7317 5.88918 46.8457 5.79613 47.03 5.71105C47.2774 5.58401 47.3438 5.61443 47.6461 5.84L47.7033 5.88267L46.0237 8.1338C45.8744 8.334 45.805 8.33315 45.6978 8.27225L45.4498 8.14442L45.3553 8.27107Z"
    fill="currentColor"
  />
  <path
    d="M47.472 9.92699L48.8219 11.185L48.94 11.0583L48.7441 10.8199C48.5593 10.592 48.5138 10.5287 48.6876 10.3422L50.3835 8.52247C50.5573 8.33602 50.6237 8.37697 50.864 8.54523L51.1156 8.72391L51.2302 8.60086L49.8803 7.3428L49.7657 7.46585L49.9241 7.66225C50.1013 7.88322 50.1543 7.95349 49.9771 8.14367L48.2811 9.96341C48.1039 10.1536 48.0301 10.1057 47.7972 9.94439L47.5901 9.8002L47.472 9.92699Z"
    fill="currentColor"
  />
  <path
    d="M49.3479 11.7169L50.756 13.3498L51.6182 12.6871L51.5217 12.5752C51.1831 12.7056 51.0158 12.7691 50.8444 12.7889C50.6217 12.8194 50.5025 12.7203 50.0399 12.1837L49.9034 12.0254L49.9188 12.0121L53.3052 11.2325L53.4712 11.0894L52.1031 9.50272L51.3165 10.1204L51.413 10.2324C51.6732 10.1359 51.8284 10.0896 52.0003 10.0626C52.2417 10.0226 52.3099 10.0782 52.7526 10.5917L52.9291 10.7963L52.9136 10.8096L49.5178 11.5704L49.3479 11.7169Z"
    fill="currentColor"
  />
  <path
    d="M51.0975 13.7728L52.4994 15.7967L53.4129 15.2445L53.3171 15.1063C53.0273 15.1892 52.7585 15.2576 52.6269 15.2557C52.4106 15.2567 52.3558 15.1955 52.1352 14.877C51.8304 14.437 51.7911 14.3713 52.2394 14.0607L53.0146 13.5237L53.1046 13.6536C53.3165 13.9595 53.3978 14.0769 53.2998 14.2129C53.2186 14.3374 53.1841 14.3861 53.0774 14.5096L53.1703 14.6437L54.2011 13.9296L54.1082 13.7956C53.958 13.8562 53.8807 13.8788 53.7524 13.8995C53.6002 13.9304 53.4918 13.8009 53.2974 13.5201L53.2074 13.3902L54.2843 12.6443C54.3517 12.6968 54.4758 12.8402 54.65 13.0916C54.859 13.3933 54.8999 13.4704 54.8146 13.6783C54.7752 13.7738 54.6957 13.9095 54.5455 14.1314L54.6413 14.2696L55.351 13.7098L54.0013 11.7613L53.8756 11.8484L53.9424 12.0254C53.9824 12.1279 53.9889 12.173 53.7752 12.321L51.7052 13.7549C51.4998 13.8971 51.4431 13.8868 51.3696 13.8075L51.2274 13.6828L51.0975 13.7728Z"
    fill="currentColor"
  />
  <path
    d="M53.691 17.9975L53.8219 18.2397L56.4587 16.8145C56.7322 16.6667 56.7699 16.7042 56.8712 16.8059L56.9632 16.9011L57.0977 16.8284L56.6469 15.9943L56.5124 16.067L56.5755 16.2588C56.6283 16.41 56.6114 16.4538 56.3423 16.5993L54.6607 17.5082L54.651 17.4902L56.2131 15.1916L55.7623 14.3575L55.6278 14.4302L55.6746 14.6135C55.7031 14.7198 55.7046 14.7653 55.4759 14.8889L53.3055 16.062C53.0364 16.2074 52.9829 16.1727 52.8954 16.0751L52.7937 15.962L52.6547 16.0371L53.1031 16.8667L53.2421 16.7916L53.1886 16.6177C53.1428 16.4686 53.1528 16.4227 53.4218 16.2773L55.6326 15.0824L55.6423 15.1003L53.691 17.9975Z"
    fill="currentColor"
  />
  <path
    d="M54.4369 19.7919C54.7443 20.5528 55.3527 20.7523 55.9246 20.5213C56.331 20.3571 56.4631 19.9628 56.4934 19.126C56.5148 18.4851 56.6003 18.3021 56.8745 18.1913C57.1817 18.0672 57.5032 18.2507 57.6483 18.6099C57.7571 18.8793 57.7122 19.0129 57.6492 19.1428C57.557 19.2955 57.49 19.3611 57.2806 19.5776L57.3493 19.7478L58.1185 19.3655C58.1037 19.1791 58.0356 18.9153 57.8885 18.5513C57.6346 17.9227 57.0771 17.6587 56.5714 17.863C56.094 18.0558 55.9713 18.4188 55.9396 19.1023C55.9136 19.8 55.8189 20.0692 55.5117 20.1933C55.2139 20.3136 54.8613 20.1756 54.6876 19.7456C54.5577 19.4242 54.5715 19.2812 54.6948 19.0829C54.8275 18.8809 54.954 18.7583 55.1379 18.5741L55.0673 18.3992L54.2045 18.8082C54.2195 19.0496 54.2784 19.3996 54.4369 19.7919Z"
    fill="currentColor"
  />
  <path
    d="M55.0802 21.2259L55.3983 22.3544L55.5504 22.3115L55.5529 22.189C55.5626 22.0168 55.5543 21.9873 55.8046 21.9168L56.933 21.5988L57.2082 22.5751L56.0797 22.8931C55.8295 22.9637 55.8226 22.9391 55.7244 22.7973L55.6582 22.6942L55.5062 22.737L55.8242 23.8655L55.9763 23.8226L55.9788 23.7001C55.9885 23.5279 55.9803 23.4984 56.2305 23.4279L58.6541 22.7448C58.9044 22.6743 58.9127 22.7037 59.0109 22.8455L59.077 22.9487L59.2242 22.9072L58.9062 21.7788L58.759 21.8202L58.7564 21.9428C58.7502 22.1087 58.7487 22.1409 58.5034 22.21L57.4339 22.5115L57.1587 21.5351L58.2282 21.2337C58.4785 21.1632 58.4868 21.1926 58.585 21.3344L58.6511 21.4376L58.7983 21.3961L58.4803 20.2676L58.3331 20.3091L58.3341 20.4254C58.3377 20.5885 58.3228 20.6298 58.0775 20.6989L55.6538 21.382C55.4085 21.4512 55.3743 21.4237 55.2922 21.2827L55.2323 21.1831L55.0802 21.2259Z"
    fill="currentColor"
  />
  <path
    d="M55.9252 24.4505L56.2268 26.271L56.3978 26.2426L56.388 25.9342C56.3808 25.6409 56.3833 25.563 56.6348 25.5213L59.0888 25.1148C59.3403 25.0731 59.3679 25.146 59.4556 25.426L59.5458 25.7211L59.7118 25.6936L59.4102 23.8732L59.2442 23.9007L59.2498 24.1529C59.2554 24.4362 59.2545 24.5241 58.998 24.5666L56.544 24.9732C56.2875 25.0157 56.2583 24.9327 56.1722 24.6628L56.0962 24.4222L55.9252 24.4505Z"
    fill="currentColor"
  />
  <path
    d="M56.3066 26.8315L56.3863 28.2412L56.5441 28.2323L56.5729 27.9295C56.5798 27.781 56.6197 27.7634 56.869 27.7493L59.6274 27.5933C59.6521 27.6684 59.6748 27.7999 59.6866 28.0086C59.7128 28.4717 59.4806 28.6992 58.875 28.7335C58.1829 28.7727 57.9751 28.5292 57.9692 27.973L57.8165 27.9816C57.7931 28.0187 57.7561 28.0872 57.7679 28.2958C57.8045 28.9421 58.3223 29.3417 58.9585 29.3057C59.6048 29.2691 59.9563 28.8051 59.9123 28.0264L59.8334 26.632L59.6807 26.6406L59.6355 26.924C59.6248 27.0063 59.6011 27.0382 59.3517 27.0524L56.8377 27.1946C56.5883 27.2087 56.5453 27.1703 56.5231 27.049L56.4643 26.8226L56.3066 26.8315Z"
    fill="currentColor"
  />
  <path
    d="M56.2696 32.6016L55.9981 34.4267L56.1695 34.4522L56.2549 34.1557C56.3379 33.8743 56.3643 33.801 56.6164 33.8385L59.0769 34.2045C59.3289 34.242 59.3328 34.3199 59.3304 34.6133L59.3257 34.9218L59.4921 34.9465L59.7636 33.1214L59.5973 33.0966L59.5252 33.3384C59.4436 33.6097 59.4157 33.6932 59.1586 33.6549L56.6982 33.2889C56.441 33.2506 56.4387 33.1627 56.4396 32.8794L56.4411 32.6271L56.2696 32.6016Z"
    fill="currentColor"
  />
  <path
    d="M55.5236 36.1753C55.3139 36.9688 55.6815 37.493 56.2778 37.6506C56.7016 37.7625 57.0436 37.526 57.5691 36.874C57.9702 36.3737 58.1483 36.2784 58.4341 36.3539C58.7545 36.4386 58.902 36.7781 58.803 37.1527C58.7288 37.4336 58.6127 37.5136 58.4845 37.5799C58.3192 37.6469 58.2263 37.6593 57.9289 37.7072L57.882 37.8847L58.7269 38.0394C58.8267 37.8812 58.9302 37.6291 59.0305 37.2497C59.2037 36.5942 58.9155 36.0488 58.3881 35.9095C57.8904 35.7779 57.5747 35.995 57.1398 36.5233C56.7011 37.0664 56.464 37.2252 56.1437 37.1406C55.8332 37.0586 55.6335 36.7369 55.752 36.2884C55.8406 35.9533 55.9372 35.847 56.1547 35.7622C56.3821 35.6799 56.5567 35.6575 56.8144 35.6201L56.8625 35.4378L55.9266 35.2485C55.7941 35.4507 55.6316 35.7663 55.5236 36.1753Z"
    fill="currentColor"
  />
  <path
    d="M53.9416 40.7561L53.3798 41.8771L53.521 41.9479L53.6511 41.7908C53.7356 41.6791 53.7607 41.6746 53.9931 41.7911L54.8498 42.2205L55.7902 43.3589C56.0725 43.6829 56.1066 43.7855 56.086 43.9405L56.0767 44.0385L56.2135 44.107L56.636 43.264L56.4993 43.1955L56.408 43.298C56.3327 43.38 56.2552 43.3981 56.1777 43.3593C56.1185 43.3296 56.0547 43.2748 55.9659 43.1676L55.1689 42.2322L55.1781 42.214L56.4067 42.2881C56.5457 42.2951 56.6346 42.2997 56.6939 42.3294C56.7805 42.3728 56.8078 42.4321 56.778 42.5711L56.7551 42.6851L56.8918 42.7536L57.4445 41.6508L57.3078 41.5823L57.2302 41.6574C57.139 41.7485 57.0364 41.7598 56.6716 41.7595L55.0623 41.7055L54.242 41.2944C54.0096 41.1779 54.0051 41.1414 54.0348 41.0252L54.0829 40.8269L53.9416 40.7561Z"
    fill="currentColor"
  />
  <path
    d="M52.2755 43.6289C51.8867 44.2335 52.0018 45.0347 53.1122 45.7488C54.094 46.3802 54.9167 46.2789 55.3275 45.6401C55.7162 45.0356 55.5798 44.2206 54.4693 43.5065C53.4918 42.8779 52.6863 42.9901 52.2755 43.6289ZM52.469 43.7898C52.822 43.241 53.5419 43.601 54.2279 44.0421C55.1411 44.6294 55.4415 45.0104 55.141 45.4778C54.7881 46.0265 54.0396 45.6543 53.3536 45.2132C52.4404 44.6259 52.1658 44.2614 52.469 43.7898Z"
    fill="currentColor"
  />
  <path
    d="M50.5645 45.9999C50.0767 46.6018 50.2618 47.1587 50.7053 47.5182L52.2379 48.7602C52.4755 48.9528 52.4536 49.0203 52.4082 49.1411L52.3742 49.2316L52.493 49.3279L53.0707 48.6151L52.9519 48.5188L52.7926 48.6587C52.6726 48.7582 52.6263 48.7667 52.3887 48.5741L50.8839 47.3545C50.4721 47.0207 50.393 46.6811 50.7108 46.289C51.0574 45.8613 51.3489 45.8417 51.7726 46.1851L53.3527 47.4657C53.5467 47.623 53.5537 47.6549 53.4972 47.7731L53.4205 47.9406L53.5393 48.0369L54.2743 47.13L54.1555 47.0338L54.0372 47.115C53.95 47.1821 53.9005 47.1945 53.7025 47.0341L52.162 45.7856C51.5443 45.2849 51.0106 45.4495 50.5645 45.9999Z"
    fill="currentColor"
  />
  <path
    d="M50.1532 49.2892C50.2365 49.2067 50.3414 49.1315 50.345 49.128L51.3458 50.1384C51.3059 50.2067 51.2261 50.3072 51.0993 50.4328C50.8241 50.7054 50.6401 50.7514 50.1988 50.3059C49.8258 49.9293 49.8055 49.6336 50.1532 49.2892ZM49.6658 47.1964L48.7966 48.0573L48.9078 48.1695L49.0777 48.0658C49.1826 47.9978 49.2187 47.9908 49.4016 48.1755L50.1657 48.9469L49.9122 49.198C49.369 48.9611 48.7716 48.7708 48.2099 48.6384L47.6848 49.1585L47.796 49.2708L47.8827 49.228C48.0092 49.1601 48.0561 49.1495 48.1425 49.1715C48.5746 49.2601 49.1792 49.4576 49.6685 49.6402L49.6793 49.651C49.4827 50.0682 49.5601 50.4723 49.8291 50.7439C50.2488 51.1676 50.6886 51.1553 51.2209 50.628L52.1517 49.7061L52.0441 49.5974L51.8814 49.694C51.7874 49.7512 51.7441 49.7654 51.5612 49.5807L49.7891 47.7917C49.6133 47.6142 49.6136 47.5565 49.6789 47.4704L49.777 47.3086L49.6658 47.1964Z"
    fill="currentColor"
  />
  <path
    d="M45.7066 52.9345C45.8049 52.8706 45.9229 52.8182 45.9271 52.8155L46.7023 54.0078C46.6493 54.0665 46.5508 54.1488 46.4013 54.2461C46.0765 54.4572 45.8869 54.465 45.5452 53.9393C45.2562 53.4949 45.2964 53.2012 45.7066 52.9345ZM45.6536 50.7863L44.6279 51.4531L44.7141 51.5856L44.9015 51.5185C45.0179 51.4731 45.0547 51.4736 45.1964 51.6915L45.7882 52.6018L45.4891 52.7963C45.0052 52.4542 44.4588 52.1468 43.9356 51.9032L43.316 52.3061L43.4021 52.4386L43.4957 52.4142C43.6333 52.3734 43.6814 52.3725 43.7615 52.4116C44.1667 52.5859 44.7187 52.9019 45.1609 53.1799L45.1692 53.1927C44.8921 53.5614 44.8859 53.9727 45.0943 54.2932C45.4194 54.7932 45.8526 54.8703 46.4808 54.4619L47.5791 53.7478L47.4957 53.6196L47.3169 53.6812C47.2132 53.7181 47.1679 53.7233 47.0262 53.5053L45.6536 51.3942C45.5175 51.1848 45.5295 51.1284 45.6109 51.0572L45.7397 50.9187L45.6536 50.7863Z"
    fill="currentColor"
  />
  <path
    d="M42.9843 52.4685L41.3388 53.3035L41.4172 53.4581L41.7084 53.3561C41.986 53.2609 42.0611 53.24 42.1764 53.4672L43.3021 55.6855C43.4174 55.9128 43.3562 55.961 43.1155 56.1288L42.8612 56.3036L42.9374 56.4536L44.5829 55.6186L44.5067 55.4686L44.2679 55.5498C43.9994 55.6403 43.9152 55.6659 43.7976 55.434L42.6719 53.2158C42.5542 52.984 42.6246 52.9311 42.8561 52.7679L43.0627 52.6231L42.9843 52.4685Z"
    fill="currentColor"
  />
  <path
    d="M39.3158 54.0634C38.9339 54.2061 38.6258 54.4301 38.4281 54.5856L38.7405 55.4212C38.8315 55.6647 38.8046 55.6802 38.6989 55.7905L38.6631 55.8256L38.7184 55.9736L39.7497 55.5881L39.6944 55.4401L39.4951 55.4602C39.3764 55.4774 39.3388 55.4642 39.2514 55.2302L39.0051 54.5713C39.0821 54.4718 39.2075 54.3705 39.4176 54.292C40.0383 54.0599 40.4006 54.4469 40.8147 55.5547C41.1949 56.5717 41.0923 57.0399 40.5051 57.2594C40.1613 57.3879 40.0796 57.315 39.9407 57.22C39.8334 57.1513 39.6683 57.0008 39.4568 56.7261L39.2992 56.785L39.7117 57.7138C39.9384 57.6943 40.1849 57.6403 40.5525 57.5029C41.3308 57.212 41.7945 56.5162 41.3162 55.2366C40.8825 54.0763 40.1992 53.7332 39.3158 54.0634Z"
    fill="currentColor"
  />
  <path
    d="M38.1321 54.5719L36.9956 54.8598L37.0345 55.013L37.1569 55.0188C37.3288 55.0331 37.3584 55.0256 37.4223 55.2776L37.7102 56.4141L36.7269 56.6632L36.439 55.5267C36.3751 55.2747 36.3998 55.2685 36.5442 55.1741L36.649 55.1107L36.6102 54.9575L35.4737 55.2455L35.5126 55.3986L35.635 55.4044C35.8069 55.4187 35.8365 55.4112 35.9004 55.6632L36.5188 58.1042C36.5827 58.3562 36.553 58.3637 36.4087 58.4581L36.3038 58.5215L36.3414 58.6697L37.4778 58.3818L37.4403 58.2335L37.3179 58.2277C37.1522 58.2171 37.12 58.2148 37.0574 57.9677L36.7845 56.8905L37.7678 56.6414L38.0407 57.7186C38.1046 57.9706 38.0749 57.9781 37.9306 58.0725L37.8257 58.1359L37.8633 58.2841L38.9997 57.9962L38.9622 57.8479L38.846 57.8458C38.6828 57.8451 38.6419 57.8292 38.5793 57.5821L37.9608 55.1411C37.8982 54.8941 37.9266 54.8606 38.0697 54.7823L38.1709 54.7251L38.1321 54.5719Z"
    fill="currentColor"
  />
  <path
    d="M34.6786 55.3685L33.2345 55.5681L33.2561 55.7246L33.5351 55.7324C33.6735 55.7287 33.7144 55.7642 33.7486 56.0116L34.1331 58.7938L34.0675 58.8029C33.6837 58.856 33.6362 58.8471 33.4657 58.6185C33.3453 58.455 33.2904 58.3185 33.1611 58.0534L32.9945 58.0764L33.1879 59.1406L35.6924 58.7945L35.5899 57.7177L35.4233 57.7408C35.3708 58.031 35.355 58.1773 35.2834 58.3673C35.1964 58.6315 35.1279 58.6564 34.7542 58.708L34.6835 58.7178L34.299 55.9356C34.2648 55.6882 34.3148 55.6401 34.4338 55.6082L34.7002 55.5251L34.6786 55.3685Z"
    fill="currentColor"
  />
  <path
    d="M29.3163 55.7109L27.8617 55.6133L27.8512 55.771L28.1227 55.8352C28.259 55.8597 28.2919 55.9027 28.2752 56.1519L28.0873 58.9543L28.0212 58.9499C27.6347 58.924 27.5899 58.9056 27.4693 58.6472C27.3846 58.4627 27.3586 58.3179 27.2858 58.0321L27.1179 58.0208L27.0914 59.1021L29.6141 59.2712L29.7321 58.1961L29.5643 58.1848C29.454 58.4584 29.4088 58.5984 29.3003 58.77C29.1615 59.011 29.0893 59.0215 28.7129 58.9962L28.6417 58.9915L28.8296 56.1891C28.8463 55.9399 28.905 55.903 29.028 55.8959L29.3058 55.8685L29.3163 55.7109Z"
    fill="currentColor"
  />
  <path
    d="M25.8735 55.2795C25.1657 55.1547 24.4712 55.5705 24.242 56.8707C24.0394 58.0203 24.4508 58.7398 25.1988 58.8717C25.9066 58.9965 26.6055 58.5555 26.8347 57.2553C27.0364 56.1108 26.6215 55.4113 25.8735 55.2795ZM25.8 55.5201C26.4426 55.6334 26.3889 56.4366 26.2473 57.2398C26.0588 58.309 25.8236 58.7334 25.2764 58.6369C24.6338 58.5236 24.6877 57.6895 24.8293 56.8863C25.0178 55.817 25.2478 55.4228 25.8 55.5201Z"
    fill="currentColor"
  />
  <path
    d="M21.5822 54.2388L19.8679 53.5562L19.8038 53.7172L20.0729 53.8682C20.3277 54.0136 20.3931 54.0561 20.2988 54.2929L19.3785 56.6039C19.2843 56.8407 19.2076 56.8266 18.9225 56.757L18.6233 56.6818L18.5611 56.838L20.2754 57.5207L20.3376 57.3644L20.1188 57.2388C19.8734 57.0972 19.7986 57.051 19.8947 56.8095L20.815 54.4984C20.9112 54.2569 20.9973 54.2748 21.2729 54.3406L21.5181 54.3998L21.5822 54.2388Z"
    fill="currentColor"
  />
  <path
    d="M17.3652 52.2699L17.1224 52.1402L15.7104 54.7841C15.564 55.0584 15.5118 55.0478 15.3712 55.019L15.242 54.9904L15.1699 55.1253L16.0063 55.5719L16.0783 55.4371L15.9197 55.3119C15.7924 55.215 15.7822 55.1691 15.9263 54.8994L16.8267 53.2132L16.8447 53.2228L16.8111 56.0018L17.6474 56.4484L17.7195 56.3135L17.5792 56.1866C17.4968 56.1137 17.4704 56.0765 17.5929 55.8472L18.7551 53.671C18.8992 53.4012 18.963 53.4006 19.0899 53.4337L19.2371 53.4718L19.3115 53.3325L18.4797 52.8882L18.4052 53.0276L18.5458 53.1431C18.6663 53.2421 18.6833 53.2859 18.5393 53.5557L17.3554 55.7724L17.3375 55.7628L17.3652 52.2699Z"
    fill="currentColor"
  />
  <path
    d="M14.9341 50.6907L14.707 50.5351L13.0127 53.0074C12.8369 53.2639 12.7862 53.2477 12.6496 53.2036L12.5243 53.161L12.4379 53.2871L13.22 53.8231L13.3064 53.6969L13.1626 53.5551C13.0467 53.4448 13.0416 53.398 13.2145 53.1458L14.2951 51.569L14.3119 51.5805L13.9726 54.3389L14.7547 54.8749L14.8411 54.7487L14.7157 54.6071C14.6418 54.5256 14.6197 54.4857 14.7667 54.2713L16.1613 52.2362C16.3342 51.9839 16.3978 51.9904 16.5202 52.0372L16.6623 52.0913L16.7516 51.961L15.9737 51.4279L15.8844 51.5582L16.0114 51.6885C16.1203 51.8002 16.1324 51.8456 15.9595 52.0979L14.5389 54.1708L14.5221 54.1593L14.9341 50.6907Z"
    fill="currentColor"
  />
  <path
    d="M13.3729 49.3852C12.828 48.9166 12.0186 48.9197 11.1578 49.9207C10.3967 50.8058 10.3832 51.6346 10.9591 52.1297C11.5041 52.5983 12.3301 52.5759 13.1909 51.5749C13.9486 50.6936 13.9488 49.8803 13.3729 49.3852ZM13.1869 49.5546C13.6816 49.98 13.2255 50.6433 12.6938 51.2617C11.9859 52.0849 11.567 52.3297 11.1457 51.9675C10.651 51.5421 11.1231 50.8523 11.6549 50.2339C12.3628 49.4107 12.7618 49.189 13.1869 49.5546Z"
    fill="currentColor"
  />
  <path
    d="M11.3415 47.5316L11.1153 47.2896L8.47803 48.596C8.08912 48.792 8.01982 48.8149 7.9065 48.7533L7.7969 48.6883L7.68517 48.7927L8.30816 49.4594L8.41988 49.355L8.3485 49.2263C8.28708 49.1233 8.293 49.0549 8.37865 48.9749C8.43452 48.9227 8.55247 48.8473 8.65505 48.8003L10.6234 47.7562L10.6374 47.7711L9.48686 49.6904C9.41414 49.8142 9.34192 49.9235 9.28606 49.9757C9.22274 50.0349 9.14325 50.0394 9.0585 49.9861L8.94542 49.9173L8.83369 50.0217L9.64462 50.8895L9.75635 50.7851L9.70933 50.6825C9.64516 50.5541 9.68062 50.4651 9.85706 50.1538L11.3415 47.5316Z"
    fill="currentColor"
  />
  <path
    d="M7.43788 47.1243L7.42561 47.108L8.21704 46.007L8.70187 46.6501L7.43788 47.1243ZM9.69802 45.88L9.75238 46.0114C9.79446 46.1265 9.80073 46.1856 9.71525 46.25C9.6542 46.296 9.59308 46.3166 9.45864 46.3669L8.92493 46.565L8.35724 45.812L8.69149 45.3493C8.77684 45.2339 8.82763 45.1573 8.88868 45.1113C8.9538 45.0622 8.9997 45.0723 9.09877 45.1444L9.20091 45.2206L9.32709 45.1255L8.64894 44.226L8.52276 44.3211L8.53923 44.3853C8.57111 44.4953 8.59372 44.5676 8.38138 44.8618L6.59232 47.366L6.7795 47.6143L9.61006 46.5847C9.99712 46.4461 10.0594 46.4694 10.1625 46.5384L10.2289 46.5841L10.3551 46.489L9.8242 45.7849L9.69802 45.88Z"
    fill="currentColor"
  />
  <path
    d="M8.25655 43.5822L7.51192 42.3289L7.37607 42.4096L7.47722 42.6697C7.53437 42.7958 7.51754 42.8473 7.30281 42.9749L4.88817 44.4095L4.85432 44.3525C4.65645 44.0194 4.64616 43.9722 4.7906 43.7263C4.89451 43.5519 4.99899 43.4483 5.19315 43.2263L5.10723 43.0816L4.20162 43.673L5.493 45.8467L6.44548 45.3341L6.35956 45.1895C6.07167 45.2538 5.93074 45.2961 5.72789 45.3039C5.45067 45.3263 5.40108 45.2728 5.20841 44.9485L5.17196 44.8871L7.5866 43.4526C7.80133 43.325 7.86503 43.3524 7.94066 43.4497L8.1207 43.6629L8.25655 43.5822Z"
    fill="currentColor"
  />
  <path
    d="M7.0669 41.547L6.0517 39.304L5.05381 39.6829L5.12318 39.8362C5.42317 39.8067 5.69994 39.7877 5.82899 39.8133C6.04197 39.8511 6.08488 39.9212 6.24462 40.2742C6.46532 40.7618 6.4922 40.8335 5.99531 41.0584L5.1362 41.4473L5.07104 41.3033C4.9176 40.9643 4.85875 40.8343 4.97959 40.718C5.08186 40.6102 5.12453 40.5685 5.25167 40.4662L5.18442 40.3176L4.04203 40.8347L4.10929 40.9833C4.26796 40.9506 4.34813 40.9423 4.47806 40.945C4.63331 40.9419 4.7166 41.0889 4.85742 41.4L4.92258 41.544L3.72911 42.0841C3.67226 42.0203 3.57592 41.8569 3.44981 41.5783C3.29847 41.2439 3.27203 41.1608 3.39341 40.9716C3.44923 40.8848 3.55194 40.7655 3.73955 40.5743L3.67019 40.4211L2.87135 40.8442L3.84871 43.0036L3.98802 42.9405L3.95415 42.7544C3.93323 42.6464 3.93499 42.6008 4.17183 42.4936L6.46589 41.4553C6.69344 41.3523 6.7474 41.3727 6.80548 41.4639L6.92294 41.6121L7.0669 41.547Z"
    fill="currentColor"
  />
  <path
    d="M1.67317 34.4901C1.67167 33.8897 2.15714 33.4018 2.7575 33.4003C3.35786 33.3988 3.84576 33.8843 3.84726 34.4847C3.84876 35.085 3.36329 35.5729 2.76293 35.5744C2.16257 35.5759 1.67467 35.0904 1.67317 34.4901Z"
    fill="currentColor"
  />
  <path
    d="M32.7729 8.37057L33.509 8.75581C34.3266 9.18372 35.246 9.37913 36.167 9.32079L36.9961 9.26826C38.5811 9.16785 40.1146 9.85061 41.1005 11.0956L41.6162 11.747C42.1891 12.4704 42.9495 13.0229 43.8146 13.3442L44.5935 13.6335C46.0822 14.1864 47.2055 15.4338 47.5997 16.9722L47.806 17.777C48.0351 18.671 48.5051 19.485 49.1647 20.1304L49.7585 20.7114C50.8937 21.822 51.4124 23.4185 51.1469 24.9843L51.008 25.8034C50.8537 26.7132 50.9519 27.648 51.292 28.5059L51.5982 29.2782C52.1835 30.7546 52.008 32.424 51.1286 33.7464L50.6685 34.4382C50.1575 35.2066 49.867 36.1005 49.8288 37.0226L49.7943 37.8527C49.7285 39.4394 48.8892 40.8931 47.548 41.7435L46.8463 42.1884C46.0669 42.6825 45.438 43.381 45.028 44.2078L44.6589 44.9521C43.9534 46.3749 42.5954 47.3616 41.0242 47.5929L40.2022 47.7139C39.2892 47.8483 38.4306 48.2306 37.7198 48.8192L37.0799 49.349C35.8566 50.3619 34.2147 50.7109 32.6853 50.2831L31.8852 50.0594C30.9964 49.8108 30.0565 49.8108 29.1678 50.0594L28.3677 50.2831C26.8382 50.7109 25.1963 50.3619 23.9731 49.349L23.3332 48.8192C22.6223 48.2306 21.7637 47.8483 20.8507 47.7139L20.0287 47.5929C18.4576 47.3616 17.0995 46.3749 16.394 44.9521L16.0249 44.2078C15.615 43.381 14.9861 42.6825 14.2067 42.1884L13.505 41.7435C12.1637 40.8932 11.3244 39.4394 11.2586 37.8527L11.2242 37.0226C11.1859 36.1005 10.8955 35.2066 10.3845 34.4382L9.92438 33.7464C9.04496 32.424 8.8695 30.7546 9.45476 29.2782L9.76095 28.5059C10.101 27.648 10.1993 26.7132 10.045 25.8034L9.90608 24.9843C9.64055 23.4185 10.1593 21.822 11.2944 20.7114L11.8883 20.1304C12.5479 19.485 13.0178 18.671 13.247 17.777L13.4532 16.9722C13.8475 15.4338 14.9707 14.1864 16.4595 13.6335L17.2383 13.3442C18.1034 13.0229 18.8638 12.4704 19.4367 11.747L19.9525 11.0956C20.9384 9.85061 22.4719 9.16785 24.0568 9.26826L24.886 9.32079C25.807 9.37913 26.7263 9.18372 27.544 8.75581L28.2801 8.37057C29.6872 7.6342 31.3658 7.6342 32.7729 8.37057Z"
    stroke="currentColor"
    stroke-width="0.199872"
  />
  <path
    opacity="0.4"
    d="M32.4939 10.9293L33.1506 11.273C33.8681 11.6485 34.6748 11.8199 35.4829 11.7687L36.2226 11.7219C37.6053 11.6343 38.9432 12.2299 39.8033 13.3161L40.2634 13.8972C40.7661 14.532 41.4334 15.0168 42.1925 15.2987L42.8873 15.5568C44.1861 16.0391 45.166 17.1274 45.51 18.4696L45.694 19.1875C45.895 19.9719 46.3074 20.6862 46.8862 21.2525L47.416 21.7708C48.4063 22.7398 48.8588 24.1326 48.6272 25.4986L48.5033 26.2293C48.3679 27.0277 48.4541 27.8479 48.7525 28.6007L49.0257 29.2897C49.5362 30.5777 49.3832 32.0341 48.6159 33.1878L48.2055 33.8049C47.7571 34.4792 47.5022 35.2636 47.4687 36.0727L47.438 36.8132C47.3806 38.1975 46.6483 39.4658 45.4782 40.2077L44.8522 40.6045C44.1683 41.0381 43.6165 41.651 43.2567 42.3765L42.9275 43.0405C42.312 44.2818 41.1272 45.1426 39.7565 45.3444L39.0232 45.4523C38.2221 45.5703 37.4686 45.9057 36.8449 46.4222L36.274 46.8949C35.2069 47.7785 33.7744 48.083 32.4401 47.7098L31.7263 47.5102C30.9465 47.2921 30.1218 47.2921 29.3419 47.5102L28.6281 47.7098C27.2938 48.083 25.8614 47.7785 24.7942 46.8949L24.2233 46.4222C23.5996 45.9057 22.8462 45.5703 22.0451 45.4523L21.3118 45.3444C19.9411 45.1426 18.7563 44.2818 18.1408 43.0405L17.8115 42.3765C17.4518 41.651 16.8999 41.0381 16.216 40.6045L15.5901 40.2077C14.4199 39.4658 13.6877 38.1975 13.6303 36.8132L13.5996 36.0727C13.566 35.2636 13.3112 34.4792 12.8627 33.8049L12.4523 33.1878C11.6851 32.0341 11.532 30.5777 12.0426 29.2897L12.3158 28.6007C12.6142 27.8479 12.7004 27.0277 12.565 26.2293L12.4411 25.4986C12.2094 24.1326 12.662 22.7398 13.6523 21.7708L14.1821 21.2525C14.7609 20.6862 15.1732 19.9719 15.3743 19.1875L15.5583 18.4696C15.9023 17.1274 16.8822 16.0391 18.181 15.5568L18.8758 15.2987C19.6349 15.0168 20.3021 14.532 20.8048 13.8972L21.2649 13.3161C22.1251 12.2299 23.4629 11.6343 24.8457 11.7219L25.5853 11.7687C26.3935 11.8199 27.2002 11.6485 27.9177 11.273L28.5743 10.9293C29.8019 10.2869 31.2664 10.2869 32.4939 10.9293Z"
    stroke="currentColor"
    stroke-width="0.199872"
  />
  <path
    opacity="0.2"
    d="M31.6651 13.825L32.9553 14.5002C33.3834 14.7243 33.8647 14.8266 34.347 14.796L35.8003 14.704C36.599 14.6534 37.3718 14.9974 37.8686 15.6248L38.7726 16.7664C39.0726 17.1453 39.4707 17.4345 39.9237 17.6027L41.2888 18.1097C42.039 18.3884 42.6051 19.017 42.8037 19.7923L43.1653 21.2029C43.2852 21.671 43.5313 22.0972 43.8767 22.4351L44.9175 23.4535C45.4896 24.0132 45.751 24.8177 45.6172 25.6067L45.3737 27.0424C45.2929 27.5188 45.3444 28.0083 45.5224 28.4574L46.0591 29.8112C46.354 30.5551 46.2656 31.3964 45.8224 32.0628L45.016 33.2754C44.7485 33.6777 44.5964 34.1458 44.5764 34.6285L44.516 36.0835C44.4829 36.8831 44.0599 37.6157 43.384 38.0442L42.1541 38.824C41.746 39.0827 41.4168 39.4484 41.2021 39.8813L40.5552 41.186C40.1996 41.903 39.5153 42.4002 38.7235 42.5167L37.2828 42.7288C36.8048 42.7992 36.3552 42.9994 35.983 43.3075L34.8614 44.2363C34.245 44.7467 33.4176 44.9225 32.6468 44.707L31.2444 44.3148C30.7791 44.1846 30.287 44.1846 29.8216 44.3148L28.4192 44.707C27.6485 44.9225 26.8211 44.7467 26.2046 44.2363L25.083 43.3075C24.7108 42.9994 24.2613 42.7992 23.7832 42.7288L22.3426 42.5167C21.5508 42.4002 20.8664 41.903 20.5109 41.186L19.864 39.8813C19.6493 39.4484 19.32 39.0827 18.9119 38.824L17.6821 38.0442C17.0062 37.6157 16.5832 36.8831 16.55 36.0835L16.4897 34.6285C16.4697 34.1458 16.3176 33.6777 16.05 33.2754L15.2436 32.0628C14.8005 31.3964 14.712 30.5551 15.007 29.8112L15.5436 28.4574C15.7217 28.0083 15.7731 27.5188 15.6924 27.0424L15.4489 25.6067C15.3151 24.8177 15.5765 24.0132 16.1485 23.4535L17.1894 22.4351C17.5348 22.0972 17.7808 21.671 17.9008 21.2029L18.2623 19.7923C18.461 19.017 19.027 18.3884 19.7773 18.1097L21.1424 17.6027C21.5953 17.4345 21.9935 17.1453 22.2934 16.7664L23.1975 15.6248C23.6943 14.9974 24.4671 14.6534 25.2658 14.704L26.7191 14.796C27.2013 14.8266 27.6827 14.7243 28.1108 14.5002L29.401 13.825C30.1101 13.4539 30.956 13.4539 31.6651 13.825Z"
    stroke="currentColor"
    stroke-width="0.199872"
  />
</svg>
