<svg viewBox="0 0 24 24" fill="none" xmlns="http://www.w3.org/2000/svg">
  <g clip-path="url(#clip0_6201_11147)">
    <path
      d="M21.8052 12.2304C21.8052 11.5506 21.7501 10.8671 21.6325 10.1984H12.2002V14.0492H17.6016C17.3775 15.2912 16.6573 16.3898 15.6027 17.088V19.5866H18.8252C20.7176 17.8449 21.8052 15.2728 21.8052 12.2304Z"
      fill="#4285F4"
    />
    <path
      d="M12.1999 22.0007C14.897 22.0007 17.1714 21.1151 18.8286 19.5866L15.6061 17.0879C14.7096 17.6979 13.5521 18.0433 12.2036 18.0433C9.59474 18.0433 7.38272 16.2832 6.58904 13.9169H3.26367V16.4927C4.96127 19.8695 8.41892 22.0007 12.1999 22.0007V22.0007Z"
      fill="#34A853"
    />
    <path
      d="M6.58564 13.9169C6.16676 12.6749 6.16676 11.3301 6.58564 10.0881V7.51233H3.26395C1.84561 10.338 1.84561 13.667 3.26395 16.4927L6.58564 13.9169V13.9169Z"
      fill="#FBBC04"
    />
    <path
      d="M12.1999 5.95805C13.6256 5.936 15.0035 6.47247 16.036 7.45722L18.8911 4.60218C17.0833 2.90459 14.6838 1.97128 12.1999 2.00067C8.41892 2.00067 4.96126 4.13185 3.26367 7.51234L6.58537 10.0881C7.37537 7.71811 9.59106 5.95805 12.1999 5.95805V5.95805Z"
      fill="#EA4335"
    />
  </g>
  <defs>
    <clipPath id="clip0_6201_11147">
      <rect width="20" height="20" fill="white" transform="translate(2 2)" />
    </clipPath>
  </defs>
</svg>
