<svg width="18" height="20" viewBox="0 0 18 20" fill="none" xmlns="http://www.w3.org/2000/svg">
<path d="M8.917 19.314c4.372 0 7.917-3.475 7.917-7.762V6.378c0-.857-.71-1.552-1.583-1.552-.875 0-1.584.695-1.584 1.552V3.274c0-.858-.709-1.553-1.583-1.553-.875 0-1.583.695-1.583 1.553V2.239c0-.858-.71-1.553-1.584-1.553-.874 0-1.583.695-1.583 1.553v1.035c0-.858-.71-1.553-1.584-1.553-.874 0-1.583.695-1.583 1.553v6.209c0-.858-.709-1.553-1.583-1.553C1.709 7.93 1 8.625 1 9.483v2.07c0 4.286 3.545 7.76 7.917 7.76Z" fill="url(#hand)"/>
<path d="M4.167 9.483v2.587m0-2.587v-6.21c0-.857.709-1.552 1.583-1.552.875 0 1.584.695 1.584 1.553M4.167 9.483c0-.858-.709-1.553-1.583-1.553C1.709 7.93 1 8.625 1 9.483v2.07c0 4.286 3.545 7.76 7.917 7.76s7.917-3.474 7.917-7.76V6.377c0-.857-.71-1.552-1.583-1.552-.875 0-1.584.695-1.584 1.552M7.334 3.274v5.691m0-5.691V2.239c0-.858.709-1.553 1.583-1.553.875 0 1.584.695 1.584 1.553v1.035m0 0v5.691m0-5.691c0-.858.708-1.553 1.583-1.553.874 0 1.583.695 1.583 1.553v3.104m0 0v2.587" stroke="#F7F6F5" stroke-width="1.118" stroke-linecap="round" stroke-linejoin="round"/>
<defs>
	<linearGradient id="hand" x1="16.834" y1="19.314" x2="16.834" y2=".686" gradientUnits="userSpaceOnUse">
		<stop stop-color="#00C6FB"/>
		<stop offset="1" stop-color="#005BEA"/>
	</linearGradient>
</defs>
</svg>
