<svg
  width="10"
  height="18"
  viewBox="0 0 10 18"
  fill="none"
  xmlns="http://www.w3.org/2000/svg"
>
  <path
    d="M9.633 10.834c.558-.495.47-1.195-.196-1.554l-1.255-.678c-.666-.36-1.066-1.228-.89-1.93L8.804.66c.176-.701-.136-.87-.693-.374L.367 7.166c-.558.496-.47 1.195.196 1.555l1.255.677c.666.36 1.066 1.228.89 1.93L1.196 17.34c-.176.702.136.87.693.374l7.744-6.88Z"
    fill="currentColor"
  />
  <path
    d="M9.633 10.834c.558-.495.47-1.195-.196-1.554l-1.255-.678c-.666-.36-1.066-1.228-.89-1.93L8.804.66c.176-.701-.136-.87-.693-.374L.367 7.166c-.558.496-.47 1.195.196 1.555l1.255.677c.666.36 1.066 1.228.89 1.93L1.196 17.34c-.176.702.136.87.693.374l7.744-6.88Z"
    fill="currentColor"
  />
  <defs>
    <linearGradient
      id="lightning"
      x1="4.167"
      y1="17.217"
      x2="12.023"
      y2="-2.7"
      gradientUnits="userSpaceOnUse"
    >
      <stop offset=".282" stop-color="#F49057" />
      <stop offset=".909" stop-color="#FDCDB2" />
    </linearGradient>
  </defs>
</svg>
