<svg width="64" height="64" viewBox="0 0 64 64" fill="none" xmlns="http://www.w3.org/2000/svg">
<g clip-path="url(#clip0_5547_9312)">
<path fill-rule="evenodd" clip-rule="evenodd" d="M44.9698 1.21533C44.8084 1.14261 44.6538 1.0435 44.4846 1.00111C38.2371 -0.564057 32.0658 -0.316343 26.0184 1.90227C23.6662 2.76519 21.4524 3.92069 19.3941 5.38586C17.6125 6.65401 15.9811 8.07264 14.5459 9.69354C9.70849 15.1566 7.40623 21.5155 7.83251 28.8063C8.11803 33.689 9.74259 38.1046 12.8362 41.8943C16.4408 46.3096 21.0794 49.055 26.8713 49.6077C30.6861 49.9717 34.3269 49.3358 37.6684 47.389C39.1059 46.5513 40.4043 45.5273 41.5568 44.3246C41.9101 43.9559 42.2834 43.5941 42.6994 43.3017C42.8784 43.1758 43.2528 43.1333 43.4226 43.2378C43.5899 43.3407 43.7302 43.7117 43.6739 43.9055C43.4871 44.5476 43.2949 45.2173 42.9451 45.7784C41.9048 47.4471 40.5662 48.852 38.9054 49.9461C32.5427 54.1381 25.8339 54.1959 18.9796 51.433C15.3596 49.9739 12.3581 47.6072 9.82623 44.623C5.48479 39.5061 3.52407 33.5445 3.39368 26.9633C3.31831 23.1571 4.14983 19.4652 5.55308 15.9231C6.69982 13.0285 8.21243 10.3253 10.2507 7.9427C11.1497 6.89184 12.1189 5.89988 13.0553 4.88024C13.2326 4.68726 13.4052 4.49024 13.5801 4.29498C13.5526 4.26198 13.5251 4.22888 13.4975 4.19578C13.257 4.39044 12.9948 4.56415 12.7794 4.78301C10.8161 6.77762 8.98593 8.87054 7.50503 11.2615C4.92094 15.4333 3.34941 19.9262 2.93689 24.8057C2.58718 28.9413 3 33.0016 4.37214 36.9322C5.55039 40.3077 7.24912 43.4208 9.64968 46.0987C15.375 52.4855 22.5057 55.6688 31.1857 55.0662C35.6545 54.7558 39.7344 53.2539 43.2218 50.4409C48.5655 46.1306 51.2422 40.5728 50.858 33.6721C50.826 33.097 50.7659 32.518 50.806 31.9467C50.8233 31.7013 51.0278 31.317 51.2121 31.2749C51.421 31.2273 51.7906 31.4296 51.9375 31.6323C52.5964 32.5405 52.8017 33.6265 52.9575 34.6997C53.5787 38.9774 52.7193 42.9769 50.5902 46.7322C48.5572 50.318 45.7563 53.1719 42.1915 55.2506C35.7429 59.0107 28.8498 59.735 21.6551 57.9692C17.1576 56.8653 13.1917 54.713 9.69174 51.7146C6.03788 48.5842 3.26787 44.8086 1.3559 40.415C0.909779 39.3899 0.489283 38.3538 0 37.3345C0.201874 37.9904 0.36756 38.6598 0.611205 39.3C3.0317 45.6595 6.98524 50.8496 12.6896 54.6645C17.7253 58.0321 23.2979 59.8129 29.3793 59.8014C35.8393 59.7893 41.6723 57.8405 46.7171 53.7871C51.734 49.756 54.7598 44.548 55.6882 38.2149C56.3972 33.379 55.4971 28.7699 53.0218 24.5516C50.9229 20.9747 47.9445 18.2755 44.0314 16.6882C43.1259 16.3209 42.1944 16.0168 41.2754 15.682C41.0262 15.5912 40.7424 15.5418 40.5412 15.3877C40.3401 15.2338 40.0722 14.9437 40.1069 14.7654C40.1502 14.5434 40.4441 14.2715 40.6817 14.2059C41.105 14.0891 41.5691 14.065 42.0129 14.0824C44.7662 14.1901 47.2252 15.1735 49.5037 16.643C54.4423 19.8283 57.4582 24.3567 58.8114 29.9856C60.176 35.6616 59.5363 41.1797 57.1887 46.5008C55.2452 50.9057 52.2539 54.531 48.4508 57.4772C45.9931 59.3812 43.2673 60.8391 40.3328 61.9366C37.5888 62.9628 34.7716 63.5809 31.8621 63.8408C31.6482 63.86 31.4363 63.9011 31.2239 63.9844C31.6508 63.9844 32.0821 64.0233 32.5042 63.9782C35.7376 63.6325 38.9159 63.021 41.9219 61.7557C45.6054 60.2053 48.9392 58.1276 51.8077 55.3139C53.9766 53.1866 55.8346 50.8513 57.2626 48.1852C60.2256 42.6534 61.3054 36.7861 60.2782 30.5922C59.1904 24.0336 56.0426 18.6392 50.6442 14.6534C46.4012 11.5205 41.6019 9.98562 36.2741 10.2899C32.9021 10.4824 29.7575 11.491 26.957 13.33C23.3056 15.7278 20.8359 19.0296 19.8206 23.3181C19.715 23.7648 19.596 24.2226 19.3852 24.6246C19.2675 24.8491 18.9494 25.0974 18.7184 25.1007C18.4896 25.1039 18.1065 24.851 18.0525 24.6435C17.8641 23.9208 17.6922 23.1696 17.6892 22.4285C17.6811 20.4066 18.3558 18.5396 19.2807 16.7737C21.6547 12.241 25.4048 9.28693 30.2041 7.57196C37.0967 5.10899 43.7165 5.99592 50.0909 9.27833C53.6624 11.1175 56.6108 13.7183 59.0531 16.901C62.1485 20.9349 64.0472 25.4554 64.8054 30.4522C65.0201 31.8665 65.1462 33.294 65.3253 34.8223C65.4889 32.9506 65.2698 31.2042 64.9803 29.4724C64.1506 24.5088 62.222 19.9912 59.1343 15.9976C56.5673 12.6773 53.4191 10.0186 49.6511 8.07669C45.4142 5.89306 40.9162 4.78993 36.1654 4.9836C30.6722 5.2075 25.6014 6.88127 21.4048 10.4593C15.1094 15.8268 12.2939 22.602 14.0034 30.8374C15.0142 35.7067 17.8207 39.4063 22.2804 41.762C23.2947 42.2978 24.4445 42.5824 25.5344 42.9758C25.9239 43.1165 26.3543 43.1815 26.7022 43.387C26.9355 43.5248 27.1939 43.8515 27.1897 44.0894C27.1856 44.3307 26.9127 44.7187 26.6874 44.7773C25.9583 44.9668 25.1902 45.1647 24.4493 45.1266C21.2672 44.9627 18.5231 43.718 16.0997 41.6842C12.4639 38.6329 10.4228 34.7101 9.546 30.1331C8.51479 24.7502 9.51858 19.6605 12.0334 14.8719C14.2551 10.6414 17.4965 7.30329 21.5972 4.76256C26.713 1.59289 32.2873 0.17574 38.2782 0.301131C40.5387 0.348462 42.7765 0.675431 44.9773 1.21257L44.9698 1.21533Z" fill="url(#paint0_linear_5547_9312)"/>
<path d="M27.5293 2.44629L27.8401 16.7964C27.8939 19.2763 29.8914 21.2738 32.3713 21.3275L46.7214 21.6384L32.3713 21.9492C29.8914 22.0029 27.8939 24.0005 27.8401 26.4803L27.5293 40.8305L27.2184 26.4803C27.1647 24.0005 25.1672 22.0029 22.6873 21.9492L8.33721 21.6384L22.6873 21.3275C25.1672 21.2738 27.1647 19.2763 27.2184 16.7964L27.5293 2.44629Z" fill="#2B2B2B"/>
</g>
<defs>
<linearGradient id="paint0_linear_5547_9312" x1="23.9669" y1="121.975" x2="103.807" y2="97.4969" gradientUnits="userSpaceOnUse">
<stop stop-color="#F26F56"/>
<stop offset="1" stop-color="#F49756"/>
</linearGradient>
<clipPath id="clip0_5547_9312">
<path d="M0 25.6C0 16.6392 0 12.1587 1.7439 8.73615C3.27787 5.72556 5.72556 3.27787 8.73615 1.7439C12.1587 0 16.6392 0 25.6 0H38.4C47.3608 0 51.8413 0 55.2638 1.7439C58.2744 3.27787 60.7221 5.72556 62.2561 8.73615C64 12.1587 64 16.6392 64 25.6V38.4C64 47.3608 64 51.8413 62.2561 55.2638C60.7221 58.2744 58.2744 60.7221 55.2638 62.2561C51.8413 64 47.3608 64 38.4 64H25.6C16.6392 64 12.1587 64 8.73615 62.2561C5.72556 60.7221 3.27787 58.2744 1.7439 55.2638C0 51.8413 0 47.3608 0 38.4V25.6Z" fill="white"/>
</clipPath>
</defs>
</svg>
