<svg width="13" height="12" viewBox="0 0 13 12" fill="none" xmlns="http://www.w3.org/2000/svg">
<path d="M6.125 4.251a1.312 1.312 0 0 1 2.548.437C8.673 5.563 7.362 6 7.362 6m.017 1.75h.006m-.094 2.917a4.958 4.958 0 1 0-4.7-3.374c.064.187.095.28.101.353a.525.525 0 0 1-.016.19c-.018.07-.057.142-.136.288L1.586 9.89c-.136.252-.204.378-.189.475.013.085.063.16.136.204.084.051.227.036.512.007l2.987-.309c.09-.01.136-.014.177-.012.04.001.069.005.109.014.04.01.09.029.191.068.553.213 1.154.33 1.782.33Z" stroke="currentColor" stroke-width="1.167" stroke-linecap="round" stroke-linejoin="round"/>
</svg>
