<svg viewBox="0 0 18 16" fill="none" xmlns="http://www.w3.org/2000/svg">
  <rect x="5.79132" y="7.54163" width="7.33413" height="4.58368" fill="black" />
  <path
    d="M16.4566 8.16146C16.6579 8.77147 16.8816 9.37235 17.053 9.99332C17.2226 10.607 17.4854 11.1951 17.7054 11.796C17.7147 11.8233 17.7054 11.8562 17.7054 11.8873C17.368 11.8635 17.0288 11.8416 16.6915 11.8124C16.4268 11.7886 16.1566 11.774 15.8994 11.7649C15.4428 11.7485 14.9973 11.6389 14.5407 11.6498C13.8586 11.6498 13.1746 11.6498 12.4925 11.648C12.1812 11.7613 11.9166 11.9512 11.6463 12.1338C11.2903 12.3731 10.9195 12.5923 10.5542 12.8187C10.4368 12.7402 10.3193 12.6617 10.2019 12.5813C10.1796 12.5685 10.1572 12.5448 10.1348 12.5448C9.52165 12.5429 8.91035 12.5429 8.29717 12.5466C8.27294 12.5466 8.25058 12.5904 8.22635 12.6123C8.12757 12.6744 8.02879 12.7347 7.93188 12.7968C7.83869 12.7566 7.74178 12.7219 7.65418 12.6726C7.4324 12.5466 7.21993 12.4078 6.99628 12.2872C6.78008 12.1685 6.55457 12.0663 6.33465 11.9548C6.13896 11.8544 5.94513 11.7503 5.74943 11.6462C5.04121 11.6462 4.33485 11.6462 3.62663 11.648C3.55767 11.6772 3.49244 11.7265 3.41975 11.7357C3.03582 11.7832 2.65189 11.7357 2.25864 11.7923C1.61006 11.8873 0.946565 11.8617 0.290527 11.8854C0.385578 11.5896 0.478766 11.2919 0.573816 10.996C0.69496 10.6198 0.808648 10.2417 0.942838 9.87095C1.10685 9.41618 1.28763 8.96872 1.4591 8.51577C1.50942 8.38245 1.54855 8.24547 1.59142 8.11032C1.63429 8.10666 1.67902 8.10666 1.72002 8.09753C2.18968 7.98064 2.65935 7.86193 3.12715 7.74139C3.44398 7.6592 3.76082 7.57701 4.07579 7.48569C4.40567 7.3889 4.72997 7.28114 5.05799 7.17886C5.14931 7.34141 5.00766 7.41081 4.92752 7.51126C4.78588 7.69025 4.62932 7.86376 4.52868 8.06283C4.43177 8.25277 4.19507 8.35688 4.20066 8.60161C4.22489 8.65093 4.25098 8.69841 4.27521 8.74772C4.29012 8.99794 4.538 9.14587 4.59205 9.35226C4.68151 9.69014 4.90889 9.94583 5.03562 10.2581C5.18286 10.6216 5.39532 10.9595 5.58356 11.3065C5.61897 11.3704 5.67116 11.4252 5.71589 11.4836C5.72707 11.4124 5.73639 11.343 5.74943 11.2718C5.81653 10.901 5.60965 10.5065 5.86126 10.154C5.91344 10.1559 5.96936 10.1486 6.01781 10.1595C6.56203 10.291 7.08574 10.5029 7.64859 10.5595C7.70264 10.6654 7.77905 10.7677 7.80887 10.8809C7.92442 11.3156 8.02134 11.7558 8.13503 12.1923C8.15739 12.2781 8.22262 12.353 8.26735 12.4315C8.27854 12.3548 8.30463 12.2781 8.29531 12.2032C8.28413 12.0991 8.22449 11.9969 8.22821 11.8946C8.26549 10.8955 8.17603 9.90017 8.1313 8.90297C8.12944 8.85183 8.13875 8.79704 8.12757 8.74955C8.12012 8.72033 8.08098 8.70024 8.05675 8.67467C8.00829 8.40802 8.04184 8.14137 7.98966 7.86558C7.88156 7.30488 7.91697 6.71862 7.88901 6.14331C7.86851 5.74515 7.84242 5.347 7.8126 4.95068C7.81074 4.93059 7.75482 4.91415 7.72314 4.89589C7.63554 4.6128 7.54795 4.33519 7.40444 4.06488C7.17147 3.6229 7.01119 3.14439 6.83972 2.67684C6.82668 2.64213 6.71299 2.47593 6.86582 2.47593C8.29904 2.46498 9.73412 2.47045 11.1692 2.46863C11.2512 2.46863 11.2848 2.5015 11.2624 2.56908C11.186 2.81747 11.1319 3.07864 11.0108 3.30694C10.9232 3.47314 10.899 3.64847 10.8281 3.80736C10.6716 4.16351 10.4815 4.50139 10.4423 4.89589C10.4237 4.93972 10.4051 4.98355 10.3883 5.02556C10.2653 5.28308 10.3547 5.56434 10.297 5.8383C10.174 6.41909 10.3492 7.02362 10.1982 7.6245C10.1143 7.9569 10.1833 8.32583 10.1833 8.6765C10.1833 8.75503 10.1833 8.83356 10.1833 8.91392C10.1591 9.06369 10.1087 9.21345 10.1125 9.36139C10.1274 9.92391 10.077 10.4864 10.1553 11.0508C10.2094 11.4416 10.1758 11.8453 10.1851 12.2416C10.1851 12.2745 10.2206 12.3073 10.2392 12.3402C10.2522 12.311 10.2709 12.2836 10.2746 12.2525C10.3044 12.0206 10.2839 11.7686 10.3734 11.5622C10.5132 11.2353 10.4013 10.8371 10.6865 10.5595C10.7331 10.5522 10.7815 10.5485 10.8281 10.5358C11.3388 10.4079 11.8513 10.2801 12.362 10.1522C12.5782 10.2563 12.4831 10.4517 12.4906 10.6106C12.5036 10.8718 12.4925 11.133 12.4962 11.3941C12.4962 11.4234 12.5186 11.4544 12.5316 11.4836C12.5446 11.4581 12.5558 11.4307 12.5689 11.4051C12.6658 11.2206 12.7646 11.0362 12.8596 10.8517C12.9864 10.6088 13.115 10.3677 13.238 10.123C13.3535 9.88921 13.456 9.64813 13.5753 9.41618C13.6871 9.19701 13.8772 9.01438 13.8921 8.74955C13.9164 8.72581 13.9406 8.70024 13.9667 8.6765C13.9965 8.66736 14.045 8.66554 14.0524 8.64727C14.0878 8.56691 14.0207 8.53586 13.9723 8.48107C13.7468 8.22355 13.5362 7.95325 13.32 7.68842C13.1895 7.52953 13.0143 7.39986 12.9789 7.18069C13.7095 7.39803 14.4382 7.62267 15.1725 7.83088C15.5956 7.95142 16.028 8.05187 16.4566 8.16146Z"
    fill="#E78C38"
  />
  <path
    d="M5.05797 7.17884C4.72995 7.28112 4.40566 7.38888 4.07578 7.48568C3.76081 7.57699 3.44397 7.65918 3.12713 7.74137C2.65933 7.86191 2.18967 7.98062 1.72001 8.09751C1.679 8.10847 1.63427 8.10664 1.59141 8.1103C1.35285 7.83451 1.11056 7.56056 0.87573 7.28112C0.86082 7.26286 0.879457 7.18798 0.898095 7.18067C1.0006 7.14049 1.10124 7.0857 1.08074 6.97064C1.05838 6.84644 0.9801 6.74599 0.853365 6.67842C0.743404 6.61997 0.586849 6.52135 0.769496 6.38985C0.996873 6.22365 0.993146 6.10493 0.754586 5.96065C0.588713 5.8602 0.521618 5.75427 0.728494 5.59172C1.03415 5.35247 0.728494 5.07851 0.721039 4.82099C0.71172 4.5105 0.622261 4.20367 0.564485 3.89502C0.501117 3.56261 0.420976 3.23387 0.365064 2.89964C0.320334 2.63481 0.484343 2.40834 0.555166 2.16543C0.624124 1.92983 0.760178 1.71249 0.844046 1.47872C0.991282 1.07143 1.09938 0.647713 1.27457 0.253216C1.3193 0.150938 1.53177 0.238604 1.64918 0.329923C1.65105 0.366451 1.63987 0.421242 1.6585 0.435853C1.9977 0.68972 2.33877 0.936281 2.67983 1.1865C3.01904 1.43488 3.35824 1.68327 3.69371 1.93531C4.04037 2.19466 4.38516 2.45948 4.73368 2.71883C5.01511 2.92886 5.30212 3.13342 5.58541 3.34345C5.84447 3.53522 6.09981 3.73064 6.35887 3.92241C6.61234 4.1087 6.8658 4.29317 7.12114 4.47398C7.32056 4.61643 7.52184 4.75341 7.72313 4.89222C7.75854 5.12234 7.53675 5.14974 7.41747 5.25384C7.09691 5.53693 6.79125 5.83828 6.44833 6.09398C5.97493 6.44647 5.61523 6.93411 5.05797 7.17884Z"
    fill="#6F3E1A"
  />
  <path
    d="M16.4569 8.16138C16.0283 8.05179 15.5959 7.95134 15.1691 7.82897C14.4366 7.61894 13.7079 7.39612 12.9755 7.17878C12.8599 7.14956 12.7947 7.05824 12.7089 6.98701C12.2486 6.59617 11.7733 6.22724 11.3111 5.84004C10.9962 5.57522 10.6942 5.29578 10.3867 5.02365C10.4054 4.97982 10.424 4.93598 10.4408 4.89398C10.4631 4.89032 10.493 4.89215 10.5097 4.87937C10.7222 4.72047 10.9328 4.55975 11.1453 4.40085C11.4565 4.1689 11.7715 3.94061 12.0846 3.71048C12.3157 3.54063 12.5431 3.36712 12.776 3.1991C13.0221 3.02011 13.2718 2.8466 13.5178 2.66579C13.8179 2.4448 14.1105 2.21285 14.4124 1.99551C14.6976 1.7873 14.9958 1.59736 15.2828 1.3928C15.5232 1.22112 15.7562 1.03849 15.9891 0.857674C16.1569 0.728001 16.3171 0.591022 16.4812 0.45587C16.5986 0.371856 16.757 0.17826 16.8595 0.337155C16.9974 0.549015 17.0105 0.832104 17.0962 1.08049C17.2322 1.47682 17.3795 1.86766 17.5249 2.26034C17.674 2.66397 17.7224 3.06577 17.5323 3.47123C17.4894 3.56072 17.4633 3.66117 17.4484 3.75979C17.3869 4.18534 17.3534 4.61454 17.2695 5.03461C17.2322 5.21725 17.0738 5.4565 17.2136 5.56974C17.6851 5.95511 17.1707 5.97702 17.0328 6.14322C17.0067 6.17427 17.0067 6.27838 17.0198 6.28385C17.618 6.51398 17.2006 6.72584 16.99 6.89387C16.7458 7.08929 17.003 7.09112 17.0738 7.15869C17.1391 7.22079 17.2211 7.24088 17.1167 7.35777C16.8837 7.61163 16.675 7.89107 16.4569 8.16138Z"
    fill="#6F3E1A"
  />
  <path
    d="M10.5521 12.8187C10.9174 12.5904 11.2882 12.373 11.6442 12.1338C11.9145 11.9511 12.1791 11.7612 12.4904 11.6479C12.5276 11.9036 12.4848 12.1575 12.5463 12.4223C12.6432 12.8461 12.6227 13.2953 12.66 13.7337C12.6767 13.9382 12.7047 14.1428 12.7401 14.3455C12.7438 14.3638 12.8706 14.3875 12.8799 14.3729C12.9749 14.2122 13.0346 14.0259 13.1501 13.8853C13.2675 13.741 13.3309 13.5766 13.4241 13.425C13.562 13.1967 13.7391 12.9903 13.8882 12.7693C13.9925 12.6159 14.0783 12.4497 14.1715 12.289C14.2945 12.0771 14.4175 11.8635 14.5423 11.6516C14.999 11.6406 15.4444 11.7502 15.901 11.7667C16.1582 11.7758 16.4303 11.7922 16.6931 11.8142C17.0304 11.8434 17.3696 11.8635 17.707 11.889C17.6082 12.2616 17.5094 12.6324 17.4106 13.005C17.3063 13.3958 17.1982 13.7866 17.0957 14.1775C16.9689 14.6633 16.8739 15.1619 16.708 15.6349C16.6297 15.8578 16.4359 15.6496 16.3036 15.6112C15.7929 15.4669 15.2822 15.3153 14.7772 15.1546C14.1323 14.9482 13.4912 14.7309 12.8482 14.5172C12.8053 14.5008 12.7531 14.4953 12.7196 14.4679C12.2089 14.077 11.7039 13.6771 11.1895 13.2917C10.9956 13.1456 10.7813 13.025 10.5782 12.8935C10.567 12.8661 10.5595 12.8424 10.5521 12.8187Z"
    fill="#D67D33"
  />
  <path
    d="M0.290527 11.8854C0.946565 11.8616 1.61006 11.8872 2.25678 11.7922C2.65003 11.7356 3.03396 11.7831 3.41789 11.7356C3.48871 11.7265 3.55581 11.679 3.62477 11.6479C3.6434 11.984 3.93974 12.1721 4.07579 12.4479C4.17084 12.6415 4.3274 12.8041 4.44109 12.9885C4.59205 13.2333 4.72438 13.4908 4.87348 13.7373C5.03003 13.9985 5.1959 14.2542 5.35805 14.5135C5.12322 14.5921 4.88839 14.6724 4.65355 14.7491C4.27521 14.8733 3.89687 15.0012 3.51667 15.1217C3.14392 15.2386 2.76931 15.3445 2.39656 15.4633C2.07599 15.5655 1.76289 15.6934 1.43859 15.7811C1.18885 15.8486 1.27645 15.6021 1.25036 15.5089C1.04162 14.7985 0.851514 14.0825 0.661412 13.3647C0.53095 12.8753 0.413534 12.3803 0.290527 11.8854Z"
    fill="#D67D33"
  />
  <path
    d="M16.4809 0.455854C16.3169 0.58918 16.1567 0.726159 15.9889 0.857658C15.7559 1.03847 15.523 1.22111 15.2826 1.39279C14.9955 1.59734 14.6973 1.78729 14.4122 1.99367C14.1103 2.21101 13.8177 2.44296 13.5176 2.66395C13.2734 2.84476 13.0218 3.01827 12.7758 3.19725C12.5447 3.36528 12.3155 3.53878 12.0844 3.70864C11.7713 3.93876 11.4563 4.16706 11.145 4.39901C10.9326 4.55608 10.722 4.71863 10.5095 4.87752C10.4927 4.89031 10.4648 4.88665 10.4405 4.89213C10.4816 4.49763 10.6698 4.15975 10.8263 3.80361C10.8953 3.64471 10.9214 3.46756 11.009 3.30318C11.1283 3.07488 11.1823 2.81371 11.2606 2.56532C11.2811 2.49592 11.2494 2.46487 11.1674 2.46487C9.73233 2.4667 8.29911 2.46305 6.86402 2.47218C6.71306 2.474 6.82488 2.63838 6.83793 2.67308C7.01126 3.14246 7.17154 3.62097 7.40265 4.06113C7.54429 4.33143 7.63375 4.60904 7.72135 4.89213C7.52006 4.75333 7.31878 4.61635 7.11936 4.47389C6.86402 4.29125 6.60869 4.10862 6.35708 3.92232C6.09802 3.73055 5.84269 3.53513 5.58363 3.34336C5.30034 3.13333 5.01519 2.92877 4.7319 2.71874C4.38338 2.45939 4.04045 2.19457 3.69193 1.93522C3.35459 1.68318 3.01539 1.43479 2.67805 1.18641C2.33699 0.936192 1.99406 0.689631 1.65672 0.435764C1.63808 0.421153 1.64927 0.366362 1.6474 0.329834C1.91205 0.421153 2.1823 0.501514 2.44136 0.605617C2.75633 0.733464 3.06012 0.885054 3.37137 1.01838C3.7348 1.17545 4.10195 1.32521 4.46911 1.47315C4.86982 1.6357 5.27611 1.78729 5.67682 1.95166C5.98247 2.07585 6.28253 2.21466 6.58632 2.34251C6.64037 2.36625 6.70001 2.38634 6.75779 2.38634C8.26929 2.38999 9.78265 2.41556 11.2941 2.37173C11.6632 2.36077 12.0247 2.12517 12.3882 1.99001C12.7777 1.8439 13.1691 1.70145 13.5567 1.54803C13.9984 1.3727 14.4364 1.18458 14.8781 1.00925C15.2732 0.850352 15.6702 0.69511 16.0709 0.549C16.2014 0.501514 16.3188 0.37732 16.4809 0.455854Z"
    fill="#D67D33"
  />
  <path
    d="M12.5654 14.6215C12.3399 14.764 12.1199 14.9137 11.887 15.0452C11.6428 15.1822 11.3912 15.3046 11.1396 15.4288C10.9588 15.5183 10.7762 15.6005 10.5935 15.6845C9.83313 15.6845 9.07086 15.6845 8.31045 15.6826C8.25641 15.6826 8.21727 15.69 8.22472 15.7539C7.70474 15.8123 7.31522 15.4708 6.86419 15.3192C6.58463 15.2242 6.32184 15.0854 6.05905 14.9503C5.9025 14.8699 5.76085 14.7585 5.61362 14.6617C5.76458 14.6233 5.88572 14.6361 6.04973 14.6964C6.40757 14.8316 6.80082 14.8699 7.17916 14.9539C7.3059 14.9813 7.44195 15.0032 7.54632 15.0708C7.59291 15.1 7.63019 15.1183 7.67305 15.111C7.69356 15.1073 7.71778 15.0562 7.71965 15.0252C7.74201 14.7695 7.67119 14.5065 7.77929 14.2544C8.75402 14.0645 9.7269 14.1083 10.6998 14.2562C10.793 14.353 10.7482 14.4407 10.7203 14.5558C10.6774 14.7256 10.6588 14.9192 10.7016 15.0854C10.7277 15.1859 10.7408 15.0306 10.7986 15.0197C11.1564 14.9503 11.5217 14.8918 11.859 14.7676C11.9503 14.7329 12.0994 14.7877 12.174 14.6416C12.2187 14.5558 12.3865 14.6854 12.4796 14.574C12.53 14.5174 12.5654 14.5521 12.5654 14.6215Z"
    fill="#C6B5A7"
  />
  <path
    d="M5.3562 14.5154C5.19406 14.256 5.02819 14.0003 4.87163 13.7392C4.72253 13.4926 4.59021 13.2351 4.43924 12.9903C4.32556 12.8059 4.169 12.6415 4.07395 12.4497C3.9379 12.1739 3.64156 11.9877 3.62292 11.6498C4.33115 11.6498 5.0375 11.6498 5.74573 11.6479C5.71218 11.8543 5.74945 12.0552 5.68795 12.2726C5.57613 12.6579 5.5519 13.0707 5.50717 13.4725C5.46989 13.8049 5.45498 14.141 5.42889 14.4752C5.41584 14.488 5.40466 14.5008 5.39161 14.5154C5.38043 14.5154 5.36739 14.5154 5.3562 14.5154Z"
    fill="#C0672A"
  />
  <path
    d="M5.39148 14.5156C5.40453 14.5028 5.41571 14.49 5.42875 14.4754C5.66731 14.3147 5.90401 14.1521 6.14443 13.9914C6.55632 13.7193 6.95702 13.4252 7.38755 13.186C7.57392 13.0837 7.67829 12.8572 7.92244 12.8536C7.91685 12.954 7.91499 13.0563 7.90381 13.1549C7.8628 13.522 7.81994 13.8873 7.77893 14.2544C7.67084 14.5046 7.74352 14.7676 7.7193 15.0251C7.71557 15.0562 7.6932 15.1073 7.6727 15.111C7.62984 15.1183 7.59256 15.1 7.54597 15.0708C7.4416 15.0051 7.30554 14.9831 7.17881 14.9539C6.80047 14.8699 6.40722 14.8297 6.04938 14.6964C5.88537 14.6343 5.76236 14.6233 5.61326 14.6617C5.53872 14.6124 5.46603 14.5631 5.39148 14.5156Z"
    fill="#D9C5B8"
  />
  <path
    d="M12.5654 14.6212C12.5654 14.5537 12.53 14.5171 12.4816 14.5774C12.3903 14.6888 12.2207 14.5592 12.1759 14.645C12.1014 14.7911 11.9523 14.7381 11.861 14.771C11.5236 14.8952 11.1583 14.9537 10.8005 15.0231C10.7427 15.034 10.7297 15.1911 10.7036 15.0888C10.6607 14.9226 10.6775 14.729 10.7222 14.5592C10.752 14.4459 10.7949 14.3564 10.7017 14.2596C10.7017 14.1994 10.7054 14.1391 10.698 14.0806C10.6439 13.6861 10.5377 13.2953 10.5768 12.8898C10.7818 13.0213 10.9943 13.1419 11.1881 13.288C11.7025 13.6752 12.2076 14.0733 12.7183 14.4642C12.7537 14.4916 12.804 14.4971 12.8469 14.5135C12.7518 14.55 12.6586 14.5847 12.5654 14.6212Z"
    fill="#D9C5B8"
  />
  <path
    d="M8.22433 15.7538C8.21688 15.688 8.25601 15.6807 8.31006 15.6825C9.07047 15.6844 9.83274 15.6844 10.5931 15.6844C10.5652 15.7081 10.5354 15.752 10.5056 15.752C9.74514 15.7556 8.98474 15.7556 8.22433 15.7538Z"
    fill="#D9C5B8"
  />
  <path
    d="M5.05789 7.17902C5.61515 6.93429 5.97672 6.44665 6.44825 6.09598C6.79117 5.84029 7.09683 5.54076 7.41739 5.25585C7.53667 5.14992 7.75659 5.12435 7.72305 4.89423C7.75473 4.91249 7.81064 4.92893 7.81251 4.94902C7.84233 5.34717 7.87028 5.74349 7.88892 6.14164C7.91688 6.71695 7.88147 7.30322 7.98956 7.86392C8.04361 8.1397 8.01006 8.40635 8.05666 8.673C6.77067 8.64926 5.48655 8.62369 4.20057 8.59995C4.19498 8.35521 4.43167 8.25111 4.52859 8.06117C4.62923 7.86209 4.78578 7.68858 4.92743 7.5096C5.00757 7.40915 5.14735 7.33975 5.05789 7.17902Z"
    fill="#D67D33"
  />
  <path
    d="M10.3862 5.02014C10.6937 5.29227 10.9956 5.57354 11.3106 5.83653C11.7728 6.22373 12.2499 6.59448 12.7084 6.9835C12.7941 7.05656 12.8593 7.14605 12.9749 7.17527C13.0103 7.39444 13.1855 7.52411 13.316 7.68301C13.534 7.94783 13.7428 8.21813 13.9683 8.47565C14.0149 8.53045 14.0838 8.56149 14.0484 8.64186C14.041 8.66012 13.9925 8.66195 13.9627 8.67108C13.972 8.58706 13.9124 8.59802 13.8602 8.59802C12.9339 8.6035 12.0076 8.57976 11.0832 8.66742C10.785 8.69482 10.4812 8.6729 10.1811 8.6729C10.1811 8.32041 10.1122 7.95148 10.1961 7.62091C10.347 7.02186 10.1737 6.4155 10.2948 5.83471C10.3526 5.55892 10.2632 5.27949 10.3862 5.02014Z"
    fill="#D67D33"
  />
  <path
    d="M10.5748 12.89C10.5357 13.2937 10.6419 13.6845 10.6959 14.0808C10.7034 14.1393 10.6997 14.1995 10.6997 14.2598C9.72679 14.11 8.75205 14.0662 7.77917 14.258C7.82204 13.8909 7.86491 13.5256 7.90405 13.1585C7.91523 13.0581 7.91709 12.9576 7.92268 12.8572C7.92455 12.8389 7.92641 12.8206 7.92827 12.8024C8.02705 12.7403 8.12583 12.68 8.22275 12.6179C8.86015 12.6179 9.49941 12.6197 10.1368 12.6179C10.1573 12.6179 10.1778 12.596 10.1983 12.585C10.3157 12.6636 10.4331 12.7421 10.5506 12.8225C10.5599 12.8425 10.5673 12.8663 10.5748 12.89Z"
    fill="#161616"
  />
  <path
    d="M4.20047 8.59985C5.48645 8.6236 6.77057 8.64917 8.05656 8.67291C8.0491 8.83546 8.04351 8.98887 7.97828 9.15324C7.89441 9.3651 7.97269 9.64454 7.87205 9.84361C7.76768 10.0555 7.93355 10.3294 7.68381 10.4828C7.6279 10.386 7.59621 10.2418 7.51235 10.2034C7.21601 10.0664 7.50675 9.27926 6.8153 9.60436C6.47797 9.76325 6.13877 9.92032 5.79956 10.0792C5.60387 10.1468 5.56287 9.96598 5.46968 9.87649C5.22739 9.64454 4.99443 9.40163 4.75214 9.16968C4.59931 9.02175 4.43344 8.88659 4.27502 8.74596C4.24893 8.69665 4.2247 8.64917 4.20047 8.59985Z"
    fill="#C0672A"
  />
  <path
    d="M10.1815 8.6727C10.4834 8.6727 10.7853 8.69644 11.0835 8.66722C12.008 8.58138 12.9342 8.6033 13.8605 8.59782C13.9127 8.59782 13.9742 8.58686 13.963 8.67088C13.9388 8.69462 13.9146 8.72019 13.8885 8.74393C13.6406 8.97405 13.3946 9.20783 13.143 9.4343C12.9025 9.64981 12.7274 9.93473 12.4198 10.0772C12.213 9.97673 12.0135 9.80871 11.7974 9.79044C11.5234 9.76487 11.3091 9.2334 11.009 9.65712C10.8282 9.91281 10.7518 10.2379 10.6288 10.5338C10.5934 10.5265 10.5281 10.5265 10.5244 10.5119C10.4648 10.2543 10.4499 9.99317 10.3623 9.73565C10.2784 9.4964 10.3026 9.22244 10.2709 8.96492C10.2691 8.94301 10.2132 8.92657 10.1815 8.9083C10.1815 8.82977 10.1815 8.75124 10.1815 8.6727Z"
    fill="#C0672A"
  />
  <path
    d="M7.92787 12.8005C7.92601 12.8188 7.92414 12.8371 7.92228 12.8553C7.67813 12.859 7.5719 13.0836 7.38738 13.1877C6.95686 13.427 6.55615 13.7192 6.14427 13.9931C5.90384 14.152 5.66715 14.3146 5.42859 14.4771C5.45468 14.1429 5.46959 13.8087 5.50687 13.4745C5.5516 13.0727 5.57582 12.6599 5.68765 12.2745C5.75102 12.0572 5.71374 11.8563 5.74543 11.6499C5.94112 11.7522 6.13495 11.8581 6.33064 11.9586C6.55056 12.0718 6.77608 12.1722 6.99227 12.291C7.21592 12.4133 7.42839 12.5521 7.65017 12.6763C7.73777 12.7256 7.83468 12.7585 7.92787 12.8005Z"
    fill="#D67D33"
  />
  <path
    d="M14.5407 11.6499C14.4177 11.8618 14.2947 12.0754 14.1698 12.2873C14.0766 12.448 13.9909 12.6142 13.8865 12.7676C13.7374 12.9905 13.5623 13.1968 13.4225 13.4233C13.3293 13.5749 13.2678 13.7393 13.1485 13.8836C13.0311 14.0242 12.9733 14.2105 12.8783 14.3712C12.8708 14.3858 12.7422 14.3602 12.7385 14.3438C12.7031 14.1411 12.6751 13.9384 12.6583 13.732C12.6229 13.2936 12.6416 12.8443 12.5447 12.4206C12.4831 12.154 12.526 11.9019 12.4887 11.6462C13.1746 11.6481 13.8567 11.6481 14.5407 11.6499Z"
    fill="#C0672A"
  />
  <path
    d="M12.4198 10.079C12.7273 9.93659 12.9025 9.65167 13.1429 9.43616C13.3945 9.20969 13.6405 8.97591 13.8884 8.74579C13.8735 9.00879 13.6834 9.19325 13.5716 9.41242C13.4523 9.64437 13.3517 9.88545 13.2342 10.1192C13.1131 10.364 12.9826 10.605 12.8559 10.848C12.759 11.0324 12.6621 11.2169 12.5652 11.4013C12.5521 11.4269 12.5391 11.4543 12.5279 11.4799C12.5148 11.4507 12.4925 11.4214 12.4925 11.3904C12.4887 11.1292 12.4999 10.8662 12.4869 10.6069C12.4794 10.448 12.5763 10.2544 12.3583 10.1484C12.3788 10.1247 12.3993 10.101 12.4198 10.079Z"
    fill="#D67C35"
  />
  <path
    d="M4.27524 8.74579C4.43552 8.88642 4.59953 9.0234 4.75236 9.16951C4.99464 9.40146 5.22575 9.64437 5.4699 9.87632C5.56309 9.96581 5.60409 10.1448 5.79978 10.079C5.82029 10.1028 5.83892 10.1265 5.85942 10.1503C5.60782 10.5028 5.81469 10.8991 5.7476 11.268C5.73455 11.3374 5.72523 11.4087 5.71405 11.4799C5.66932 11.4214 5.61714 11.3666 5.58173 11.3027C5.39349 10.9557 5.18102 10.6178 5.03378 10.2544C4.90705 9.94207 4.67967 9.68637 4.59021 9.34849C4.53616 9.14394 4.29015 8.996 4.27524 8.74579Z"
    fill="#D67C35"
  />
  <path
    d="M7.68412 10.4827C7.93573 10.3293 7.76799 10.0535 7.87236 9.84344C7.97114 9.64437 7.89473 9.36676 7.9786 9.15307C8.04383 8.98687 8.04942 8.83528 8.05687 8.67273C8.0811 8.69647 8.12024 8.71839 8.1277 8.74761C8.13888 8.79692 8.12956 8.84989 8.13142 8.90103C8.17615 9.89823 8.26561 10.8936 8.22834 11.8926C8.22461 11.9949 8.28425 12.0972 8.29543 12.2013C8.30289 12.2762 8.2768 12.3529 8.26748 12.4296C8.22275 12.3492 8.15752 12.2744 8.13515 12.1903C8.02146 11.7538 7.92455 11.3155 7.80899 10.879C7.77917 10.7658 7.70276 10.6653 7.64871 10.5576C7.65989 10.532 7.67108 10.5064 7.68412 10.4827Z"
    fill="#D67C35"
  />
  <path
    d="M10.6285 10.5339C10.6472 10.5412 10.6658 10.5485 10.6826 10.5558C10.3974 10.8335 10.5093 11.2316 10.3695 11.5585C10.2819 11.7667 10.3024 12.0188 10.2707 12.2489C10.267 12.28 10.2465 12.3073 10.2353 12.3366C10.2166 12.3037 10.1831 12.2708 10.1812 12.2379C10.1719 11.8398 10.2055 11.438 10.1514 11.0471C10.0731 10.4828 10.1235 9.92027 10.1085 9.35774C10.1048 9.2098 10.1533 9.06004 10.1794 8.91028C10.2111 8.92854 10.2651 8.94498 10.2688 8.9669C10.3005 9.22442 10.2782 9.49837 10.3602 9.73763C10.4496 9.99515 10.4627 10.2563 10.5223 10.5138C10.5279 10.5266 10.5931 10.5266 10.6285 10.5339Z"
    fill="#D67C35"
  />
  <path
    d="M10.2001 12.583C10.1796 12.5939 10.1591 12.6158 10.1386 12.6158C9.50121 12.6177 8.86195 12.6158 8.22455 12.6158C8.24878 12.5921 8.27114 12.5501 8.29537 12.5501C8.90854 12.5464 9.51985 12.5464 10.133 12.5483C10.1554 12.5464 10.1778 12.5702 10.2001 12.583Z"
    fill="#AF6A2A"
  />
</svg>
