<svg viewBox="0 0 19 19" fill="none" xmlns="http://www.w3.org/2000/svg">
  <path
    fill-rule="evenodd"
    clip-rule="evenodd"
    d="M8.61299 10.3868L2.88672 10.3868C2.39694 10.3868 1.9999 9.98978 1.9999 9.5V9.5C1.9999 9.01022 2.39694 8.61318 2.88672 8.61318L8.61299 8.61318L8.61299 2.88696C8.61299 2.39711 9.01009 2 9.49995 2V2C9.9898 2 10.3869 2.39711 10.3869 2.88696L10.3869 8.61318L16.1132 8.61318C16.603 8.61318 17 9.01022 17 9.5V9.5C17 9.98977 16.603 10.3868 16.1132 10.3868L10.3869 10.3868L10.3869 16.113C10.3869 16.6029 9.9898 17 9.49995 17V17C9.01009 17 8.61299 16.6029 8.61299 16.113L8.61299 10.3868Z"
    fill="currentColor"
  />
</svg>
