<svg viewBox="0 0 24 24" fill="none" xmlns="http://www.w3.org/2000/svg">
  <g clip-path="url(#clip0_6201_11155)">
    <path
      d="M12 22C17.5228 22 22 17.5228 22 12C22 6.47715 17.5228 2 12 2C6.47715 2 2 6.47715 2 12C2 17.5228 6.47715 22 12 22Z"
      fill="#FF4500"
    />
    <path
      d="M18.6674 12C18.6674 11.193 18.0124 10.538 17.2054 10.538C16.8077 10.538 16.4568 10.69 16.1995 10.9473C15.2054 10.2339 13.8253 9.76605 12.3048 9.70757L12.9715 6.58477L15.1352 7.04091C15.1586 7.59061 15.6147 8.03506 16.1761 8.03506C16.7492 8.03506 17.2171 7.56722 17.2171 6.99412C17.2171 6.42102 16.7492 5.95319 16.1761 5.95319C15.7668 5.95319 15.4159 6.1871 15.2522 6.53798L12.8311 6.02336C12.7609 6.01167 12.6908 6.02336 12.6323 6.05845C12.5738 6.09354 12.5387 6.15202 12.5153 6.22219L11.7785 9.70757C10.2229 9.75436 8.83111 10.2105 7.82526 10.9473C7.56795 10.7017 7.20537 10.538 6.81941 10.538C6.01239 10.538 5.35742 11.193 5.35742 12C5.35742 12.5965 5.7083 13.0994 6.22292 13.3333C6.19953 13.4737 6.18783 13.6257 6.18783 13.7777C6.18783 16.0234 8.79602 17.8362 12.0241 17.8362C15.2522 17.8362 17.8603 16.0234 17.8603 13.7777C17.8603 13.6257 17.8486 13.4853 17.8253 13.345C18.3048 13.1111 18.6674 12.5965 18.6674 12ZM8.66736 13.0409C8.66736 12.4678 9.1352 12 9.7083 12C10.2814 12 10.7492 12.4678 10.7492 13.0409C10.7492 13.614 10.2814 14.0818 9.7083 14.0818C9.1352 14.0818 8.66736 13.614 8.66736 13.0409ZM14.4802 15.7894C13.7668 16.5029 12.4101 16.5497 12.0124 16.5497C11.6147 16.5497 10.2463 16.4912 9.54456 15.7894C9.43929 15.6842 9.43929 15.5087 9.54456 15.4035C9.64982 15.2982 9.82526 15.2982 9.93052 15.4035C10.375 15.8479 11.334 16.0117 12.0241 16.0117C12.7141 16.0117 13.6615 15.8479 14.1177 15.4035C14.2229 15.2982 14.3984 15.2982 14.5036 15.4035C14.5855 15.5204 14.5855 15.6842 14.4802 15.7894ZM14.2931 14.0818C13.72 14.0818 13.2522 13.614 13.2522 13.0409C13.2522 12.4678 13.72 12 14.2931 12C14.8662 12 15.334 12.4678 15.334 13.0409C15.334 13.614 14.8662 14.0818 14.2931 14.0818Z"
      fill="white"
    />
  </g>
  <defs>
    <clipPath id="clip0_6201_11155">
      <rect width="20" height="20" fill="white" transform="translate(2 2)" />
    </clipPath>
  </defs>
</svg>
