<svg
  width="15"
  height="14"
  viewBox="0 0 15 14"
  fill="none"
  xmlns="http://www.w3.org/2000/svg"
>
  <path
    d="M2.31212 6.09438C2.38651 5.75091 2.49098 5.41378 2.62709 5.08931C2.60652 5.13996 2.58436 5.19061 2.56378 5.24126C2.75213 4.79808 2.9943 4.38181 3.2887 4.00036C3.25546 4.04309 3.22222 4.08583 3.18898 4.12856C3.48021 3.75186 3.81734 3.41473 4.19405 3.12192C4.15131 3.15516 4.10858 3.18839 4.06584 3.22163C4.44413 2.9304 4.85881 2.68824 5.29883 2.50147C5.24818 2.52204 5.19753 2.5442 5.14688 2.56478C5.60747 2.37168 6.09022 2.24189 6.58404 2.17541C6.52865 2.18333 6.47167 2.19124 6.41627 2.19757C6.90535 2.13426 7.39917 2.13426 7.88667 2.19916C7.83127 2.19124 7.77429 2.18333 7.7189 2.177C8.20797 2.24347 8.68597 2.37643 9.14182 2.56794C9.09117 2.54737 9.04052 2.52521 8.98987 2.50463C9.43305 2.69457 9.8509 2.93831 10.2323 3.23429C10.1896 3.20106 10.1469 3.16782 10.1041 3.13458C10.4745 3.42423 10.8085 3.75661 11.0965 4.12856C11.0633 4.08583 11.0301 4.04309 10.9968 4.00036C11.2896 4.38023 11.5318 4.7965 11.7186 5.23809C11.698 5.18744 11.6758 5.1368 11.6553 5.08615C11.7819 5.39162 11.8832 5.7066 11.956 6.0279C12.0288 6.35079 12.4198 6.57238 12.7347 6.4695C13.0734 6.36028 13.2555 6.0374 13.1763 5.69077C12.9342 4.62397 12.3992 3.62999 11.6505 2.83069C10.9256 2.05671 9.99335 1.48216 8.98512 1.16244C7.93732 0.830053 6.80088 0.79998 5.73092 1.04373C4.64514 1.29222 3.62899 1.85253 2.82969 2.62651C2.05096 3.37991 1.47483 4.34857 1.17885 5.39162C1.14403 5.51191 1.11554 5.63379 1.08863 5.75566C1.05223 5.92185 1.06489 6.09438 1.15194 6.24316C1.2295 6.37453 1.37986 6.49957 1.53023 6.53439C1.69167 6.57079 1.87369 6.56288 2.01772 6.47108C2.15543 6.38561 2.2773 6.25582 2.31212 6.09438Z"
    fill="#FF9C66"
  />
  <path
    d="M12.768 3.38466C12.5321 4.05892 12.2963 4.73477 12.0605 5.40903C12.0272 5.504 11.994 5.59897 11.9607 5.69552C12.2203 5.54832 12.4799 5.40112 12.7395 5.25392C12.0652 5.01809 11.3894 4.78225 10.7151 4.54642C10.6201 4.51318 10.5252 4.47994 10.4286 4.4467C10.2798 4.39447 10.0741 4.43246 9.94112 4.51001C9.80975 4.58757 9.68471 4.73794 9.64989 4.8883C9.61348 5.04974 9.6214 5.23176 9.7132 5.3758C9.80658 5.51983 9.92846 5.61005 10.0915 5.66703C10.7657 5.90286 11.4416 6.1387 12.1159 6.37453C12.2108 6.40777 12.3058 6.44101 12.4023 6.47424C12.5448 6.52489 12.7648 6.49165 12.8898 6.41093C13.0339 6.31755 13.1241 6.19567 13.1811 6.03265C13.4169 5.35838 13.6527 4.68254 13.8886 4.00827C13.9218 3.91331 13.955 3.81834 13.9883 3.72179C14.0405 3.57301 14.0025 3.36725 13.925 3.23429C13.8474 3.10292 13.6971 2.97788 13.5467 2.94306C13.3852 2.90666 13.2032 2.91457 13.0592 3.00637C12.9152 3.09818 12.8249 3.22163 12.768 3.38466Z"
    fill="#FF9C66"
  />
  <path
    d="M12.0557 8.01112C11.9813 8.35459 11.8769 8.69172 11.7407 9.01619C11.7613 8.96554 11.7835 8.91489 11.8041 8.86424C11.6157 9.30742 11.3735 9.72369 11.0791 10.1051C11.1124 10.0624 11.1456 10.0197 11.1789 9.97693C10.8876 10.3536 10.5505 10.6908 10.1738 10.9836C10.2165 10.9503 10.2593 10.9171 10.302 10.8839C9.92372 11.1751 9.50903 11.4173 9.06901 11.604C9.11966 11.5835 9.17031 11.5613 9.22096 11.5407C8.76037 11.7338 8.27763 11.8636 7.7838 11.9301C7.8392 11.9222 7.89618 11.9143 7.95157 11.9079C7.46249 11.9712 6.96867 11.9712 6.48117 11.9063C6.53657 11.9143 6.59355 11.9222 6.64895 11.9285C6.15987 11.862 5.68187 11.7291 5.22603 11.5376C5.27668 11.5581 5.32732 11.5803 5.37797 11.6009C4.9348 11.4109 4.51694 11.1672 4.13549 10.8712C4.17823 10.9044 4.22096 10.9377 4.2637 10.9709C3.89333 10.6813 3.55936 10.3489 3.27129 9.97693C3.30453 10.0197 3.33777 10.0624 3.37101 10.1051C3.0782 9.72527 2.83603 9.309 2.64926 8.86741C2.66984 8.91806 2.692 8.9687 2.71257 9.01935C2.58595 8.71388 2.48465 8.3989 2.41185 8.0776C2.33904 7.75471 1.94809 7.53312 1.63312 7.636C1.2944 7.74522 1.11238 8.0681 1.19152 8.41473C1.43369 9.48152 1.96867 10.4755 2.71732 11.2748C3.44223 12.0488 4.37449 12.6233 5.38272 12.9431C6.43052 13.2754 7.56696 13.3055 8.63692 13.0618C9.7227 12.8133 10.7388 12.253 11.5382 11.479C12.3169 10.7256 12.893 9.75693 13.189 8.71388C13.2238 8.59359 13.2523 8.47171 13.2792 8.34984C13.3156 8.18365 13.3029 8.01112 13.2159 7.86234C13.1383 7.73097 12.988 7.60593 12.8376 7.57111C12.6762 7.53471 12.4941 7.54262 12.3501 7.63442C12.2124 7.71831 12.0905 7.84968 12.0557 8.01112Z"
    fill="#FF9C66"
  />
  <path
    d="M1.59988 10.7208C1.83571 10.0466 2.07155 9.37073 2.30738 8.69647C2.34062 8.6015 2.37386 8.50653 2.4071 8.40998C2.14752 8.55718 1.88795 8.70438 1.62837 8.85158C2.30263 9.08741 2.97848 9.32325 3.65274 9.55908C3.74771 9.59232 3.84268 9.62556 3.93923 9.6588C4.08801 9.71103 4.29377 9.67304 4.42672 9.59548C4.55809 9.51793 4.68313 9.36756 4.71796 9.2172C4.75436 9.05576 4.74645 8.87374 4.65464 8.7297C4.56126 8.58567 4.43939 8.49545 4.27636 8.43847C3.6021 8.20264 2.92625 7.9668 2.25198 7.73097C2.15702 7.69773 2.06205 7.66449 1.9655 7.63126C1.82305 7.58061 1.60305 7.61384 1.47801 7.69457C1.33397 7.78795 1.24375 7.90982 1.18677 8.07285C0.95094 8.74711 0.715106 9.42296 0.479272 10.0972C0.446033 10.1922 0.412795 10.2872 0.379557 10.3837C0.327325 10.5325 0.365312 10.7383 0.442868 10.8712C0.520424 11.0026 0.670788 11.1276 0.821152 11.1624C0.982596 11.1988 1.16462 11.1909 1.30865 11.0991C1.45268 11.0057 1.5429 10.8823 1.59988 10.7208Z"
    fill="#FF9C66"
  />
</svg>
