<svg viewBox="0 0 24 24" fill="none" xmlns="http://www.w3.org/2000/svg">
  <g clip-path="url(#clip0_6201_11160)">
    <path
      d="M12 22C17.5228 22 22 17.5228 22 12C22 6.47715 17.5228 2 12 2C6.47715 2 2 6.47715 2 12C2 17.5228 6.47715 22 12 22Z"
      fill="url(#paint0_linear_6201_11160)"
    />
    <path
      fill-rule="evenodd"
      clip-rule="evenodd"
      d="M6.52684 11.8944C9.44204 10.6243 11.386 9.78699 12.3586 9.38243C15.1357 8.22734 15.7128 8.02669 16.0889 8.02006C16.1716 8.0186 16.3566 8.0391 16.4764 8.13632C16.5776 8.21841 16.6054 8.3293 16.6187 8.40713C16.632 8.48497 16.6486 8.66226 16.6354 8.8008C16.485 10.382 15.8338 14.2193 15.5025 15.9903C15.3623 16.7397 15.0863 16.9909 14.8191 17.0155C14.2384 17.069 13.7974 16.6317 13.2349 16.263C12.3548 15.6861 11.8576 15.327 11.0033 14.764C10.016 14.1134 10.656 13.7558 11.2187 13.1714C11.3659 13.0184 13.9246 10.6911 13.9741 10.48C13.9803 10.4536 13.986 10.3552 13.9276 10.3032C13.8691 10.2512 13.7828 10.269 13.7205 10.2831C13.6322 10.3032 12.2262 11.2325 9.50246 13.0711C9.10337 13.3452 8.74188 13.4787 8.418 13.4717C8.06095 13.464 7.37413 13.2698 6.86355 13.1038C6.23729 12.9003 5.73956 12.7926 5.7829 12.4469C5.80548 12.2668 6.05346 12.0827 6.52684 11.8944Z"
      fill="white"
    />
  </g>
  <defs>
    <linearGradient
      id="paint0_linear_6201_11160"
      x1="12"
      y1="2"
      x2="12"
      y2="21.8517"
      gradientUnits="userSpaceOnUse"
    >
      <stop stop-color="#2AABEE" />
      <stop offset="1" stop-color="#229ED9" />
    </linearGradient>
    <clipPath id="clip0_6201_11160">
      <rect width="20" height="20" fill="white" transform="translate(2 2)" />
    </clipPath>
  </defs>
</svg>
