<svg viewBox="0 0 15 14" fill="none" xmlns="http://www.w3.org/2000/svg">
  <g clip-path="url(#clip0_6599_35971)">
    <path
      d="M5.50033 6.99984L6.66699 8.1665L9.29199 5.5415M10.6927 2.91563C10.8128 3.20615 11.0434 3.43707 11.3337 3.55763L12.3517 3.97932C12.6422 4.09967 12.8731 4.3305 12.9934 4.62104C13.1137 4.91158 13.1137 5.23802 12.9934 5.52856L12.572 6.54589C12.4516 6.83656 12.4515 7.16333 12.5724 7.45386L12.9931 8.47089C13.0527 8.61479 13.0834 8.76903 13.0835 8.92481C13.0835 9.08058 13.0528 9.23484 12.9932 9.37876C12.9336 9.52268 12.8462 9.65344 12.736 9.76357C12.6259 9.8737 12.4951 9.96105 12.3512 10.0206L11.3339 10.442C11.0434 10.5621 10.8124 10.7927 10.6919 11.083L10.2702 12.1011C10.1499 12.3916 9.91905 12.6225 9.62852 12.7428C9.338 12.8632 9.01156 12.8632 8.72103 12.7428L7.70374 12.3214C7.41321 12.2014 7.08689 12.2016 6.79654 12.3221L5.77851 12.7432C5.48815 12.8633 5.162 12.8632 4.87171 12.7429C4.58142 12.6227 4.35072 12.3921 4.2303 12.1019L3.8085 11.0835C3.68838 10.793 3.45781 10.5621 3.16749 10.4415L2.14946 10.0198C1.85906 9.89953 1.62831 9.66885 1.50792 9.37848C1.38754 9.08811 1.38738 8.76181 1.50747 8.47132L1.92885 7.45399C2.04889 7.16345 2.04865 6.83712 1.92816 6.54675L1.50739 5.52796C1.44774 5.38406 1.41702 5.22982 1.41699 5.07404C1.41697 4.91826 1.44764 4.76401 1.50725 4.62009C1.56686 4.47617 1.65424 4.34541 1.76441 4.23528C1.87457 4.12514 2.00536 4.0378 2.14929 3.97823L3.16658 3.55684C3.45683 3.43682 3.68761 3.20654 3.80825 2.91654L4.22993 1.89848C4.35027 1.60794 4.5811 1.37711 4.87162 1.25676C5.16215 1.13642 5.48858 1.13642 5.77911 1.25676L6.7964 1.67815C7.08694 1.7982 7.41325 1.79796 7.70361 1.67747L8.72206 1.25742C9.01255 1.13714 9.33891 1.13716 9.62938 1.25748C9.91985 1.37781 10.1506 1.60857 10.271 1.89903L10.6928 2.9174L10.6927 2.91563Z"
      stroke="url(#paint0_linear_6599_35971)"
      stroke-width="1.16667"
      stroke-linecap="round"
      stroke-linejoin="round"
    />
  </g>
  <defs>
    <linearGradient
      id="paint0_linear_6599_35971"
      x1="1.41681"
      y1="12.8331"
      x2="13.0835"
      y2="1.16636"
      gradientUnits="userSpaceOnUse"
    >
      <stop stop-color="#F26F56" />
      <stop offset="1" stop-color="#F49756" />
    </linearGradient>
    <clipPath id="clip0_6599_35971">
      <rect width="14" height="14" fill="white" transform="translate(0.25)" />
    </clipPath>
  </defs>
</svg>
