<svg viewBox="0 0 20 21" fill="none" xmlns="http://www.w3.org/2000/svg">
  <path
    d="M10.0001 11.3528C10.4603 11.3528 10.8334 10.9797 10.8334 10.5195C10.8334 10.0593 10.4603 9.68618 10.0001 9.68618C9.53984 9.68618 9.16675 10.0593 9.16675 10.5195C9.16675 10.9797 9.53984 11.3528 10.0001 11.3528Z"
    stroke="currentColor"
    stroke-width="1.66667"
    stroke-linecap="round"
    stroke-linejoin="round"
  />
  <path
    d="M10.0001 5.51951C10.4603 5.51951 10.8334 5.14641 10.8334 4.68618C10.8334 4.22594 10.4603 3.85284 10.0001 3.85284C9.53984 3.85284 9.16675 4.22594 9.16675 4.68618C9.16675 5.14641 9.53984 5.51951 10.0001 5.51951Z"
    stroke="currentColor"
    stroke-width="1.66667"
    stroke-linecap="round"
    stroke-linejoin="round"
  />
  <path
    d="M10.0001 17.1862C10.4603 17.1862 10.8334 16.8131 10.8334 16.3528C10.8334 15.8926 10.4603 15.5195 10.0001 15.5195C9.53984 15.5195 9.16675 15.8926 9.16675 16.3528C9.16675 16.8131 9.53984 17.1862 10.0001 17.1862Z"
    stroke="currentColor"
    stroke-width="1.66667"
    stroke-linecap="round"
    stroke-linejoin="round"
  />
</svg>
