<svg viewBox="0 0 24 24" fill="none" xmlns="http://www.w3.org/2000/svg">
  <g clip-path="url(#clip0_6201_11151)">
    <path
      d="M21.6014 7.15456C21.4883 6.72907 21.2654 6.34074 20.9551 6.02844C20.6448 5.71614 20.2579 5.49081 19.8332 5.37501C18.2695 4.95456 12.0195 4.95456 12.0195 4.95456C12.0195 4.95456 5.76953 4.95456 4.20589 5.37501C3.78114 5.49081 3.39425 5.71614 3.08394 6.02844C2.77363 6.34074 2.55079 6.72907 2.43771 7.15456C2.01953 8.72501 2.01953 12 2.01953 12C2.01953 12 2.01953 15.275 2.43771 16.8455C2.55079 17.271 2.77363 17.6593 3.08394 17.9716C3.39425 18.2839 3.78114 18.5092 4.20589 18.625C5.76953 19.0455 12.0195 19.0455 12.0195 19.0455C12.0195 19.0455 18.2695 19.0455 19.8332 18.625C20.2579 18.5092 20.6448 18.2839 20.9551 17.9716C21.2654 17.6593 21.4883 17.271 21.6014 16.8455C22.0195 15.275 22.0195 12 22.0195 12C22.0195 12 22.0195 8.72501 21.6014 7.15456Z"
      fill="#FF0302"
    />
    <path
      d="M9.97461 14.9739V9.02615L15.2019 12L9.97461 14.9739Z"
      fill="#FEFEFE"
    />
  </g>
  <defs>
    <clipPath id="clip0_6201_11151">
      <rect width="20" height="20" fill="white" transform="translate(2 2)" />
    </clipPath>
  </defs>
</svg>
