<svg
  width="96"
  height="93"
  viewBox="0 0 96 93"
  fill="none"
  xmlns="http://www.w3.org/2000/svg"
>
  <path
    fill-rule="evenodd"
    clip-rule="evenodd"
    d="M47.7498 91.9866C47.5172 91.9955 47.2853 92 47.0541 92H47.056C42.6641 92 38.5308 90.3982 34.9462 87.2722C34.8625 87.1984 34.7783 87.1246 34.6942 87.0507C34.61 86.9769 34.5258 86.903 34.4421 86.8292L34.4208 86.8105C33.7337 86.2067 33.0275 85.5862 32.5801 85.3088C31.663 84.7396 30.7029 84.1997 29.7381 83.685C29.2798 83.4405 28.7431 83.3899 28.2463 83.5417C27.902 83.6469 27.5534 83.7546 27.2008 83.8635L27.0089 83.9229C26.9128 83.9524 26.8163 83.9821 26.7194 84.0119C26.0713 84.2115 25.4047 84.4168 24.7283 84.6177C23.8094 84.8904 22.8923 85.1535 22.0068 85.4073C21.1995 85.6382 20.3904 85.8711 19.583 86.1097C16.9211 86.8973 14.1644 86.5925 11.8224 85.252C10.457 84.4719 8.0202 82.6013 7.01943 78.841C6.84717 78.1956 6.65864 77.5337 6.45922 76.8335L6.4502 76.8019C6.41116 76.6647 6.3726 76.528 6.33403 76.3913C6.29541 76.2544 6.25678 76.1175 6.21768 75.9801C5.92564 74.9482 5.63358 73.9182 5.33968 72.8882L5.31206 72.7912C4.44637 69.7484 3.55248 66.6066 2.71869 63.4592C1.83511 60.1307 2.59778 57.1126 3.12979 55.6093C4.08782 52.9017 5.0789 50.1881 6.06658 47.5109C6.27709 46.9403 6.2072 46.3096 5.9381 45.7641C5.32185 44.5151 4.95597 43.191 4.84297 41.8655C4.82501 41.6549 4.78058 41.4472 4.70797 41.2486C4.62375 41.0182 4.53992 40.7714 4.45989 40.5085C4.39961 40.3104 4.31323 40.1213 4.20465 39.945C4.13477 39.8316 4.06605 39.7155 3.9985 39.597L0.878362 33.0528C0.503757 32.2672 0.680325 31.3294 1.31502 30.7338L2.37834 29.7358C2.92336 29.2243 3.14208 28.4502 2.91671 27.7375L2.89727 27.6763C1.58771 23.579 1.6398 19.5915 3.05353 15.8275C3.13692 15.6032 3.22507 15.3789 3.31322 15.1546C3.33519 15.0987 3.35716 15.0428 3.37905 14.9868C3.48694 14.7142 3.5874 14.4586 3.64878 14.2844L3.73807 14.0269L3.76486 13.95C4.43737 12.0199 5.13246 10.025 5.77682 8.08548C7.01942 4.34796 9.59948 2.64013 11.0262 1.95473C13.478 0.777046 16.2719 0.686163 18.8929 1.69723C20.7178 2.40346 22.2394 2.98851 23.8075 3.57167C24.662 3.89013 25.5164 4.19759 26.4204 4.52289L26.4657 4.53919C28.3147 5.20376 30.227 5.89295 32.1634 6.6806C35.0043 7.83617 37.3269 8.88856 39.4056 9.96259C39.6773 10.103 39.9775 10.1852 40.2831 10.172C41.9838 10.1014 43.7229 10.0465 45.4897 10.0077C45.6492 9.96739 45.8164 9.94658 45.9886 9.94793C46.5779 9.95256 47.165 9.95896 47.7498 9.96712C48.3345 9.95896 48.9217 9.95256 49.5109 9.94793C49.6832 9.94658 49.8504 9.96739 50.0099 10.0077C51.7766 10.0465 53.5158 10.1014 55.2165 10.172C55.5221 10.1852 55.8222 10.103 56.094 9.96259C58.1727 8.88856 60.4953 7.83617 63.3361 6.6806C65.2726 5.89295 67.1848 5.20376 69.0339 4.53919L69.0788 4.523C69.983 4.19766 70.8375 3.89016 71.692 3.57167C73.2602 2.98851 74.7818 2.40346 76.6066 1.69723C79.2276 0.686163 82.0216 0.777046 84.4733 1.95473C85.9001 2.64013 88.4801 4.34796 89.7227 8.08548C90.3673 10.0256 91.0626 12.0211 91.7353 13.9517L91.7615 14.0269L91.8508 14.2844C91.9122 14.4586 92.0126 14.7142 92.1205 14.9868C92.1423 15.0426 92.1643 15.0984 92.1862 15.1541C92.2744 15.3786 92.3626 15.6031 92.446 15.8275C93.8598 19.5915 93.9118 23.579 92.6023 27.6763L92.5828 27.7375C92.3575 28.4502 92.5762 29.2243 93.1212 29.7358L94.1845 30.7338C94.8192 31.3294 94.9958 32.2672 94.6212 33.0528L91.5011 39.597C91.4335 39.7155 91.3648 39.8316 91.2949 39.945C91.1863 40.1213 91.0999 40.3104 91.0397 40.5085C90.9596 40.7714 90.8758 41.0182 90.7916 41.2486C90.719 41.4472 90.6745 41.6549 90.6566 41.8655C90.5436 43.191 90.1777 44.5151 89.5615 45.7641C89.2924 46.3096 89.2225 46.9403 89.433 47.5109C90.4207 50.1881 91.4117 52.9017 92.3698 55.6093C92.9018 57.1126 93.6645 60.1307 92.7809 63.4592C91.947 66.6069 91.053 69.7491 90.1872 72.7921L90.1599 72.8882C89.866 73.9182 89.5739 74.9482 89.2819 75.9801C89.2037 76.2547 89.1275 76.5273 89.0494 76.8019L89.0407 76.8322C88.8412 77.5329 88.6525 78.1952 88.4801 78.841C87.4794 82.6013 85.0425 84.4719 83.6772 85.252C81.3352 86.5925 78.5784 86.8973 75.9165 86.1097C75.1092 85.8711 74.3 85.6382 73.4927 85.4073C72.6073 85.1535 71.6902 84.8904 70.7713 84.6177C70.0948 84.4168 69.4282 84.2115 68.7801 84.0119C68.6832 83.9821 68.5867 83.9524 68.4907 83.9229L68.2979 83.8633C67.9456 83.7544 67.5973 83.6468 67.2533 83.5417C66.7565 83.3899 66.2197 83.4405 65.7614 83.685C64.7966 84.1997 63.8365 84.7396 62.9195 85.3088C62.4721 85.5862 61.7659 86.2067 61.0787 86.8105L61.0574 86.8292C60.89 86.9769 60.7207 87.1246 60.5533 87.2722C56.9688 90.3982 52.8354 92 48.4436 92H48.4454C48.2142 92 47.9824 91.9955 47.7498 91.9866Z"
    fill="#F6F5F4"
  />
  <path
    fill-rule="evenodd"
    clip-rule="evenodd"
    d="M47.7498 91.9866C47.5172 91.9955 47.2853 92 47.0541 92H47.056C42.6641 92 38.5308 90.3982 34.9462 87.2722C34.8625 87.1984 34.7783 87.1246 34.6942 87.0507C34.61 86.9769 34.5258 86.903 34.4421 86.8292L34.4208 86.8105C33.7337 86.2067 33.0275 85.5862 32.5801 85.3088C31.663 84.7396 30.7029 84.1997 29.7381 83.685C29.2798 83.4405 28.7431 83.3899 28.2463 83.5417C27.902 83.6469 27.5534 83.7546 27.2008 83.8635L27.0089 83.9229C26.9128 83.9524 26.8163 83.9821 26.7194 84.0119C26.0713 84.2115 25.4047 84.4168 24.7283 84.6177C23.8094 84.8904 22.8923 85.1535 22.0068 85.4073C21.1995 85.6382 20.3904 85.8711 19.583 86.1097C16.9211 86.8973 14.1644 86.5925 11.8224 85.252C10.457 84.4719 8.0202 82.6013 7.01943 78.841C6.84717 78.1956 6.65864 77.5337 6.45922 76.8335L6.4502 76.8019C6.41116 76.6647 6.3726 76.528 6.33403 76.3913C6.29541 76.2544 6.25678 76.1175 6.21768 75.9801C5.92564 74.9482 5.63358 73.9182 5.33968 72.8882L5.31206 72.7912C4.44637 69.7484 3.55248 66.6066 2.71869 63.4592C1.83511 60.1307 2.59778 57.1126 3.12979 55.6093C4.08782 52.9017 5.0789 50.1881 6.06658 47.5109C6.27709 46.9403 6.2072 46.3096 5.9381 45.7641C5.32185 44.5151 4.95597 43.191 4.84297 41.8655C4.82501 41.6549 4.78058 41.4472 4.70797 41.2486C4.62375 41.0182 4.53992 40.7714 4.45989 40.5085C4.39961 40.3104 4.31323 40.1213 4.20465 39.945C4.13477 39.8316 4.06605 39.7155 3.9985 39.597L0.878362 33.0528C0.503757 32.2672 0.680325 31.3294 1.31502 30.7338L2.37834 29.7358C2.92336 29.2243 3.14208 28.4502 2.91671 27.7375L2.89727 27.6763C1.58771 23.579 1.6398 19.5915 3.05353 15.8275C3.13692 15.6032 3.22507 15.3789 3.31322 15.1546C3.33519 15.0987 3.35716 15.0428 3.37905 14.9868C3.48694 14.7142 3.5874 14.4586 3.64878 14.2844L3.73807 14.0269L3.76486 13.95C4.43737 12.0199 5.13246 10.025 5.77682 8.08548C7.01942 4.34796 9.59948 2.64013 11.0262 1.95473C13.478 0.777046 16.2719 0.686163 18.8929 1.69723C20.7178 2.40346 22.2394 2.98851 23.8075 3.57167C24.662 3.89013 25.5164 4.19759 26.4204 4.52289L26.4657 4.53919C28.3147 5.20376 30.227 5.89295 32.1634 6.6806C35.0043 7.83617 37.3269 8.88856 39.4056 9.96259C39.6773 10.103 39.9775 10.1852 40.2831 10.172C41.9838 10.1014 43.7229 10.0465 45.4897 10.0077C45.6492 9.96739 45.8164 9.94658 45.9886 9.94793C46.5779 9.95256 47.165 9.95896 47.7498 9.96712C48.3345 9.95896 48.9217 9.95256 49.5109 9.94793C49.6832 9.94658 49.8504 9.96739 50.0099 10.0077C51.7766 10.0465 53.5158 10.1014 55.2165 10.172C55.5221 10.1852 55.8222 10.103 56.094 9.96259C58.1727 8.88856 60.4953 7.83617 63.3361 6.6806C65.2726 5.89295 67.1848 5.20376 69.0339 4.53919L69.0788 4.523C69.983 4.19766 70.8375 3.89016 71.692 3.57167C73.2602 2.98851 74.7818 2.40346 76.6066 1.69723C79.2276 0.686163 82.0216 0.777046 84.4733 1.95473C85.9001 2.64013 88.4801 4.34796 89.7227 8.08548C90.3673 10.0256 91.0626 12.0211 91.7353 13.9517L91.7615 14.0269L91.8508 14.2844C91.9122 14.4586 92.0126 14.7142 92.1205 14.9868C92.1423 15.0426 92.1643 15.0984 92.1862 15.1541C92.2744 15.3786 92.3626 15.6031 92.446 15.8275C93.8598 19.5915 93.9118 23.579 92.6023 27.6763L92.5828 27.7375C92.3575 28.4502 92.5762 29.2243 93.1212 29.7358L94.1845 30.7338C94.8192 31.3294 94.9958 32.2672 94.6212 33.0528L91.5011 39.597C91.4335 39.7155 91.3648 39.8316 91.2949 39.945C91.1863 40.1213 91.0999 40.3104 91.0397 40.5085C90.9596 40.7714 90.8758 41.0182 90.7916 41.2486C90.719 41.4472 90.6745 41.6549 90.6566 41.8655C90.5436 43.191 90.1777 44.5151 89.5615 45.7641C89.2924 46.3096 89.2225 46.9403 89.433 47.5109C90.4207 50.1881 91.4117 52.9017 92.3698 55.6093C92.9018 57.1126 93.6645 60.1307 92.7809 63.4592C91.947 66.6069 91.053 69.7491 90.1872 72.7921L90.1599 72.8882C89.866 73.9182 89.5739 74.9482 89.2819 75.9801C89.2037 76.2547 89.1275 76.5273 89.0494 76.8019L89.0407 76.8322C88.8412 77.5329 88.6525 78.1952 88.4801 78.841C87.4794 82.6013 85.0425 84.4719 83.6772 85.252C81.3352 86.5925 78.5784 86.8973 75.9165 86.1097C75.1092 85.8711 74.3 85.6382 73.4927 85.4073C72.6073 85.1535 71.6902 84.8904 70.7713 84.6177C70.0948 84.4168 69.4282 84.2115 68.7801 84.0119C68.6832 83.9821 68.5867 83.9524 68.4907 83.9229L68.2979 83.8633C67.9456 83.7544 67.5973 83.6468 67.2533 83.5417C66.7565 83.3899 66.2197 83.4405 65.7614 83.685C64.7966 84.1997 63.8365 84.7396 62.9195 85.3088C62.4721 85.5862 61.7659 86.2067 61.0787 86.8105L61.0574 86.8292C60.89 86.9769 60.7207 87.1246 60.5533 87.2722C56.9688 90.3982 52.8354 92 48.4436 92H48.4454C48.2142 92 47.9824 91.9955 47.7498 91.9866Z"
    fill="url(#paint0_linear_6599_35126)"
    fill-opacity="0.05"
  />
  <path
    d="M47.7498 91.9866L47.7689 91.487L47.7498 91.4863L47.7306 91.487L47.7498 91.9866ZM34.9462 87.2722L34.6155 87.6472L34.6176 87.6491L34.9462 87.2722ZM34.4421 86.8292L34.7729 86.4542L34.7721 86.4536L34.4421 86.8292ZM34.4208 86.8105L34.0908 87.1861L34.0908 87.1861L34.4208 86.8105ZM32.5801 85.3088L32.3164 85.7336L32.3166 85.7338L32.5801 85.3088ZM29.7381 83.685L29.9735 83.2439L29.7381 83.685ZM28.2463 83.5417L28.3923 84.0199H28.3923L28.2463 83.5417ZM27.2008 83.8635L27.3485 84.3412L27.3485 84.3412L27.2008 83.8635ZM27.0089 83.9229L27.1559 84.4007L27.1565 84.4006L27.0089 83.9229ZM26.7194 84.0119L26.8666 84.4898H26.8666L26.7194 84.0119ZM24.7283 84.6177L24.8705 85.0971L24.8707 85.097L24.7283 84.6177ZM22.0068 85.4073L22.1444 85.888L22.1446 85.8879L22.0068 85.4073ZM19.583 86.1097L19.4413 85.6302L19.4412 85.6302L19.583 86.1097ZM11.8224 85.252L12.0708 84.8181L12.0704 84.8179L11.8224 85.252ZM7.01943 78.841L7.50261 78.7124L7.50251 78.7121L7.01943 78.841ZM6.45922 76.8335L6.9401 76.6966L6.94009 76.6966L6.45922 76.8335ZM6.4502 76.8019L5.96929 76.9387L5.96933 76.9388L6.4502 76.8019ZM6.33403 76.3913L5.85282 76.5271H5.85282L6.33403 76.3913ZM6.21768 75.9801L5.73658 76.1163L5.73678 76.117L6.21768 75.9801ZM5.33968 72.8882L4.85876 73.0251L4.85887 73.0254L5.33968 72.8882ZM5.31206 72.7912L4.83114 72.928L5.31206 72.7912ZM2.71869 63.4592L3.20202 63.3312L3.20195 63.3309L2.71869 63.4592ZM3.12979 55.6093L3.60115 55.7761L3.60116 55.7761L3.12979 55.6093ZM6.06658 47.5109L5.59749 47.3378L6.06658 47.5109ZM5.9381 45.7641L6.3865 45.5429H6.3865L5.9381 45.7641ZM4.84297 41.8655L5.34116 41.8231L4.84297 41.8655ZM4.70797 41.2486L4.23838 41.4203H4.23838L4.70797 41.2486ZM4.45989 40.5085L3.98155 40.6541L4.45989 40.5085ZM4.20465 39.945L4.63035 39.6827H4.63034L4.20465 39.945ZM3.9985 39.597L3.54717 39.8122L3.55506 39.8287L3.56414 39.8446L3.9985 39.597ZM0.878362 33.0528L1.32969 32.8377H1.32969L0.878362 33.0528ZM1.31502 30.7338L1.65718 31.0983L1.31502 30.7338ZM2.37834 29.7358L2.03618 29.3713L2.37834 29.7358ZM2.91671 27.7375L3.39343 27.5868L3.3933 27.5864L2.91671 27.7375ZM2.89727 27.6763L3.37387 27.5251L3.37354 27.524L2.89727 27.6763ZM3.05353 15.8275L3.52161 16.0033L3.52219 16.0017L3.05353 15.8275ZM3.31322 15.1546L3.77858 15.3374L3.77858 15.3374L3.31322 15.1546ZM3.37905 14.9868L2.91413 14.8029L2.91349 14.8045L3.37905 14.9868ZM3.64878 14.2844L4.12036 14.4506L4.12119 14.4482L3.64878 14.2844ZM3.73807 14.0269L3.26591 13.8624L3.26566 13.8631L3.73807 14.0269ZM3.76486 13.95L4.23702 14.1145L4.23702 14.1145L3.76486 13.95ZM5.77682 8.08548L5.30235 7.92774L5.30232 7.92785L5.77682 8.08548ZM11.0262 1.95473L10.8097 1.50403L10.8097 1.50403L11.0262 1.95473ZM18.8929 1.69723L19.0734 1.23093L19.0729 1.23073L18.8929 1.69723ZM23.8075 3.57167L23.9821 3.10315L23.9818 3.10303L23.8075 3.57167ZM26.4204 4.52289L26.2511 4.99336L26.2511 4.99336L26.4204 4.52289ZM26.4657 4.53919L26.2964 5.00966L26.2966 5.00972L26.4657 4.53919ZM32.1634 6.6806L32.3518 6.21745L32.3518 6.21745L32.1634 6.6806ZM39.4056 9.96259L39.1761 10.4068V10.4068L39.4056 9.96259ZM40.2831 10.172L40.2623 9.67242L40.2615 9.67245L40.2831 10.172ZM45.4897 10.0077L45.5007 10.5075L45.5572 10.5063L45.6121 10.4924L45.4897 10.0077ZM45.9886 9.94793L45.9847 10.4479H45.9847L45.9886 9.94793ZM47.7498 9.96712L47.7428 10.4673L47.7567 10.4671L47.7498 9.96712ZM49.5109 9.94793L49.5149 10.4479L49.5109 9.94793ZM50.0099 10.0077L49.8874 10.4924L49.9423 10.5063L49.9989 10.5075L50.0099 10.0077ZM55.2165 10.172L55.238 9.67245L55.2372 9.67242L55.2165 10.172ZM56.094 9.96259L56.3235 10.4068V10.4068L56.094 9.96259ZM63.3361 6.6806L63.1478 6.21745L63.1478 6.21745L63.3361 6.6806ZM69.0339 4.53919L69.203 5.00972L69.2031 5.00966L69.0339 4.53919ZM69.0788 4.523L69.2481 4.99347L69.2481 4.99347L69.0788 4.523ZM71.692 3.57167L71.5178 3.10303L71.5174 3.10315L71.692 3.57167ZM76.6066 1.69723L76.4267 1.23073L76.4262 1.23093L76.6066 1.69723ZM84.4733 1.95473L84.6898 1.50403L84.6898 1.50403L84.4733 1.95473ZM89.7227 8.08548L90.1972 7.92785L90.1972 7.92774L89.7227 8.08548ZM91.7353 13.9517L91.2631 14.1162L91.2631 14.1162L91.7353 13.9517ZM91.7615 14.0269L92.2339 13.8631L92.2336 13.8624L91.7615 14.0269ZM91.8508 14.2844L91.3783 14.4482L91.3792 14.4506L91.8508 14.2844ZM92.1205 14.9868L92.5861 14.8045L92.5854 14.8029L92.1205 14.9868ZM92.1862 15.1541L92.6515 14.9713L92.6515 14.9712L92.1862 15.1541ZM92.446 15.8275L91.9774 16.0017L91.978 16.0033L92.446 15.8275ZM92.6023 27.6763L92.126 27.524L92.1257 27.5251L92.6023 27.6763ZM92.5828 27.7375L92.1062 27.5864L92.1061 27.5868L92.5828 27.7375ZM93.1212 29.7358L92.7791 30.1004L93.1212 29.7358ZM94.1845 30.7338L93.8424 31.0983V31.0983L94.1845 30.7338ZM94.6212 33.0528L95.0725 33.268L94.6212 33.0528ZM91.5011 39.597L91.9354 39.8446L91.9445 39.8287L91.9524 39.8122L91.5011 39.597ZM91.2949 39.945L90.8692 39.6827L90.8692 39.6827L91.2949 39.945ZM91.0397 40.5085L90.5613 40.3629L90.5613 40.3629L91.0397 40.5085ZM90.7916 41.2486L91.2612 41.4203V41.4203L90.7916 41.2486ZM90.6566 41.8655L91.1548 41.908V41.908L90.6566 41.8655ZM89.5615 45.7641L90.0098 45.9854V45.9854L89.5615 45.7641ZM89.433 47.5109L89.9021 47.3378V47.3378L89.433 47.5109ZM92.3698 55.6093L91.8984 55.7761L91.8984 55.7761L92.3698 55.6093ZM92.7809 63.4592L92.2976 63.3309L92.2975 63.3312L92.7809 63.4592ZM90.1872 72.7921L90.6681 72.9289L90.6682 72.9289L90.1872 72.7921ZM90.1599 72.8882L90.6407 73.0254L90.6408 73.0251L90.1599 72.8882ZM89.2819 75.9801L89.7628 76.117L89.763 76.1163L89.2819 75.9801ZM89.0494 76.8019L89.5302 76.9388L89.5303 76.9387L89.0494 76.8019ZM89.0407 76.8322L89.5216 76.9691L89.5216 76.9691L89.0407 76.8322ZM88.4801 78.841L87.997 78.7121L87.9969 78.7124L88.4801 78.841ZM83.6772 85.252L83.4291 84.8179L83.4288 84.8181L83.6772 85.252ZM75.9165 86.1097L76.0584 85.6302L76.0582 85.6302L75.9165 86.1097ZM73.4927 85.4073L73.355 85.8879L73.3552 85.888L73.4927 85.4073ZM70.7713 84.6177L70.6289 85.097L70.629 85.0971L70.7713 84.6177ZM68.7801 84.0119L68.9272 83.5341H68.9272L68.7801 84.0119ZM68.4907 83.9229L68.3431 84.4006L68.3436 84.4007L68.4907 83.9229ZM68.2979 83.8633L68.1503 84.341L68.1503 84.341L68.2979 83.8633ZM67.2533 83.5417L67.1072 84.0199H67.1072L67.2533 83.5417ZM65.7614 83.685L65.9967 84.1262L65.7614 83.685ZM62.9195 85.3088L63.1829 85.7338L63.1831 85.7336L62.9195 85.3088ZM61.0787 86.8105L61.4087 87.1861L61.4088 87.1861L61.0787 86.8105ZM61.0574 86.8292L60.7274 86.4536L60.7267 86.4542L61.0574 86.8292ZM60.5533 87.2722L60.882 87.6491L60.8841 87.6472L60.5533 87.2722ZM47.0541 92.5C47.2917 92.5 47.53 92.4954 47.7689 92.4863L47.7306 91.487C47.5044 91.4957 47.2789 91.5 47.0541 91.5V92.5ZM47.056 91.5H47.0541V92.5H47.056V91.5ZM34.6176 87.6491C38.2861 90.8483 42.5342 92.5 47.056 92.5V91.5C42.794 91.5 38.7754 89.9481 35.2749 86.8954L34.6176 87.6491ZM34.3644 87.4266C34.4487 87.5005 34.5323 87.5739 34.6155 87.6472L35.277 86.8973C35.1927 86.8229 35.108 86.7486 35.0239 86.6749L34.3644 87.4266ZM34.1114 87.2041C34.1957 87.2785 34.2804 87.3528 34.3644 87.4266L35.0239 86.6749C34.9396 86.6009 34.856 86.5275 34.7729 86.4542L34.1114 87.2041ZM34.0908 87.1861L34.1121 87.2048L34.7721 86.4536L34.7509 86.4349L34.0908 87.1861ZM32.3166 85.7338C32.7193 85.9834 33.3862 86.5669 34.0908 87.1861L34.7509 86.4349C34.0811 85.8464 33.3357 85.1889 32.8435 84.8838L32.3166 85.7338ZM29.5028 84.1262C30.4614 84.6375 31.4114 85.1719 32.3164 85.7336L32.8437 84.884C31.9146 84.3073 30.9445 83.7618 29.9735 83.2439L29.5028 84.1262ZM28.3923 84.0199C28.7631 83.9066 29.1626 83.9447 29.5028 84.1262L29.9735 83.2439C29.397 82.9363 28.723 82.8732 28.1002 83.0635L28.3923 84.0199ZM27.3485 84.3412C27.7012 84.2322 28.0489 84.1248 28.3923 84.0199L28.1002 83.0635C27.755 83.1689 27.4056 83.2769 27.0532 83.3858L27.3485 84.3412ZM27.1565 84.4006L27.3485 84.3412L27.0532 83.3858L26.8613 83.4451L27.1565 84.4006ZM26.8666 84.4898C26.9635 84.46 27.0599 84.4303 27.1559 84.4007L26.8618 83.445C26.7657 83.4745 26.6692 83.5042 26.5723 83.5341L26.8666 84.4898ZM24.8707 85.097C25.5499 84.8952 26.2188 84.6893 26.8666 84.4898L26.5723 83.5341C25.9238 83.7338 25.2596 83.9383 24.5859 84.1384L24.8707 85.097ZM22.1446 85.8879C23.0299 85.6342 23.949 85.3705 24.8705 85.0971L24.5861 84.1384C23.6697 84.4103 22.7547 84.6728 21.8691 84.9266L22.1446 85.8879ZM19.7247 86.5892C20.5299 86.3513 21.3374 86.1189 22.1444 85.888L21.8693 84.9265C21.0616 85.1576 20.2508 85.391 19.4413 85.6302L19.7247 86.5892ZM11.574 85.6859C14.0382 87.0964 16.9364 87.4143 19.7249 86.5892L19.4412 85.6302C16.9059 86.3804 14.2906 86.0886 12.0708 84.8181L11.574 85.6859ZM6.53625 78.9696C7.58214 82.8994 10.135 84.8638 11.5744 85.6861L12.0704 84.8179C10.7791 84.0801 8.45827 82.3032 7.50261 78.7124L6.53625 78.9696ZM5.97834 76.9705C6.178 77.6715 6.36534 78.3293 6.53634 78.97L7.50251 78.7121C7.32899 78.062 7.13929 77.396 6.9401 76.6966L5.97834 76.9705ZM5.96933 76.9388L5.97835 76.9705L6.94009 76.6966L6.93107 76.6649L5.96933 76.9388ZM5.85282 76.5271C5.89136 76.6637 5.93008 76.8009 5.96929 76.9387L6.9311 76.665C6.89225 76.5285 6.85384 76.3923 6.81525 76.2555L5.85282 76.5271ZM5.73678 76.117C5.77569 76.2537 5.81417 76.3901 5.85282 76.5271L6.81525 76.2556C6.77664 76.1187 6.73786 75.9813 6.69859 75.8433L5.73678 76.117ZM4.85887 73.0254C5.15263 74.0549 5.44457 75.0845 5.73658 76.1163L6.69879 75.844C6.4067 74.8119 6.11454 73.7816 5.82049 72.751L4.85887 73.0254ZM4.83114 72.928L4.85876 73.0251L5.82059 72.7514L5.79297 72.6543L4.83114 72.928ZM2.23536 63.5873C3.07051 66.7398 3.96565 69.886 4.83114 72.928L5.79297 72.6543C4.92708 69.6109 4.03445 66.4734 3.20202 63.3312L2.23536 63.5873ZM2.65844 55.4425C2.11018 56.9917 1.31529 60.1212 2.23543 63.5875L3.20195 63.3309C2.35493 60.1401 3.08538 57.2335 3.60115 55.7761L2.65844 55.4425ZM5.59749 47.3378C4.60948 50.0159 3.61753 52.7319 2.65843 55.4425L3.60116 55.7761C4.55811 53.0715 5.54833 50.3602 6.53568 47.684L5.59749 47.3378ZM5.48971 45.9854C5.70835 46.4285 5.75306 46.9161 5.59749 47.3378L6.53568 47.684C6.80113 46.9644 6.70606 46.1906 6.3865 45.5429L5.48971 45.9854ZM4.34478 41.908C4.46314 43.2964 4.84617 44.681 5.48971 45.9854L6.3865 45.5429C5.79752 44.3491 5.4488 43.0857 5.34116 41.8231L4.34478 41.908ZM4.23838 41.4203C4.29496 41.575 4.33037 41.7391 4.34478 41.908L5.34116 41.8231C5.31964 41.5706 5.26621 41.3193 5.17756 41.0769L4.23838 41.4203ZM3.98155 40.6541C4.06453 40.9267 4.15134 41.1822 4.23838 41.4203L5.17756 41.0769C5.09616 40.8542 5.01531 40.6162 4.93823 40.3629L3.98155 40.6541ZM3.77895 40.2073C3.86588 40.3484 3.93419 40.4985 3.98155 40.6541L4.93823 40.3629C4.86503 40.1224 4.76059 39.8941 4.63035 39.6827L3.77895 40.2073ZM3.56414 39.8446C3.63433 39.9677 3.70593 40.0887 3.77895 40.2073L4.63034 39.6827C4.56361 39.5744 4.49778 39.4632 4.43285 39.3493L3.56414 39.8446ZM0.427036 33.268L3.54717 39.8122L4.44982 39.3818L1.32969 32.8377L0.427036 33.268ZM0.972858 30.3692C0.179489 31.1137 -0.04122 32.2859 0.427036 33.268L1.32969 32.8377C1.04873 32.2484 1.18116 31.5451 1.65718 31.0983L0.972858 30.3692ZM2.03618 29.3713L0.972858 30.3692L1.65718 31.0983L2.7205 30.1004L2.03618 29.3713ZM2.43998 27.8883C2.60473 28.4093 2.44743 28.9853 2.03618 29.3713L2.7205 30.1004C3.39929 29.4634 3.67943 28.4911 3.39343 27.5868L2.43998 27.8883ZM2.42067 27.8274L2.44011 27.8887L3.3933 27.5864L3.37387 27.5251L2.42067 27.8274ZM2.58546 15.6517C1.12929 19.5287 1.07978 23.6321 2.42101 27.8285L3.37354 27.524C2.09564 23.5259 2.1503 19.6544 3.5216 16.0033L2.58546 15.6517ZM2.84786 14.9717C2.76 15.1953 2.67014 15.4239 2.58486 15.6533L3.52219 16.0017C3.6037 15.7825 3.69013 15.5625 3.77858 15.3374L2.84786 14.9717ZM2.91349 14.8045C2.89171 14.8601 2.86985 14.9157 2.84786 14.9717L3.77858 15.3374C3.80053 15.2816 3.8226 15.2254 3.84462 15.1692L2.91349 14.8045ZM3.17721 14.1182C3.11965 14.2815 3.02314 14.5274 2.91413 14.8029L3.84397 15.1708C3.95075 14.901 4.05514 14.6356 4.12036 14.4506L3.17721 14.1182ZM3.26566 13.8631L3.17638 14.1206L4.12119 14.4482L4.21048 14.1907L3.26566 13.8631ZM3.2927 13.7855L3.26591 13.8624L4.21023 14.1914L4.23702 14.1145L3.2927 13.7855ZM5.30232 7.92785C4.6593 9.86337 3.96543 11.8548 3.2927 13.7855L4.23702 14.1145C4.90931 12.1851 5.60561 10.1867 6.25132 8.24312L5.30232 7.92785ZM10.8097 1.50403C9.30489 2.22695 6.60098 4.02169 5.30235 7.92774L6.25128 8.24323C7.43785 4.67423 9.89408 3.05331 11.2427 2.40542L10.8097 1.50403ZM19.0729 1.23073C16.3281 0.171918 13.3904 0.264401 10.8097 1.50403L11.2427 2.40543C13.5655 1.28969 16.2158 1.20041 18.713 2.16372L19.0729 1.23073ZM23.9818 3.10303C22.4169 2.52109 20.8979 1.93704 19.0734 1.23093L18.7125 2.16352C20.5376 2.86988 22.0618 3.45593 23.6332 4.04031L23.9818 3.10303ZM26.5897 4.05243C25.6852 3.72695 24.8335 3.42045 23.9821 3.10315L23.6329 4.04019C24.4904 4.3598 25.3476 4.66823 26.2511 4.99336L26.5897 4.05243ZM26.635 4.06872L26.5897 4.05242L26.2511 4.99336L26.2964 5.00966L26.635 4.06872ZM32.3518 6.21745C30.4044 5.42536 28.4829 4.7329 26.6348 4.06866L26.2966 5.00972C28.1465 5.67463 30.0495 6.36054 31.975 7.14375L32.3518 6.21745ZM39.6351 9.51839C37.5396 8.43567 35.2026 7.37706 32.3518 6.21745L31.975 7.14375C34.806 8.29528 37.1142 9.34146 39.1761 10.4068L39.6351 9.51839ZM40.2615 9.67245C40.0599 9.68115 39.846 9.62735 39.6351 9.51838L39.1761 10.4068C39.5087 10.5787 39.895 10.6892 40.3046 10.6715L40.2615 9.67245ZM45.4787 9.50779C43.7088 9.54664 41.9664 9.60172 40.2623 9.67242L40.3038 10.6716C42.0011 10.6011 43.7371 10.5463 45.5007 10.5075L45.4787 9.50779ZM45.6121 10.4924C45.7307 10.4625 45.8554 10.4469 45.9847 10.4479L45.9925 9.44795C45.7773 9.44626 45.5677 9.47227 45.3673 9.52288L45.6121 10.4924ZM45.9847 10.4479C46.5729 10.4525 47.1591 10.4589 47.7428 10.4671L47.7567 9.46717C47.171 9.459 46.5828 9.45258 45.9925 9.44795L45.9847 10.4479ZM49.507 9.44795C48.9168 9.45258 48.3285 9.459 47.7428 9.46717L47.7567 10.4671C48.3405 10.4589 48.9266 10.4525 49.5149 10.4479L49.507 9.44795ZM50.1323 9.52288C49.9319 9.47227 49.7222 9.44626 49.507 9.44795L49.5149 10.4479C49.6441 10.4469 49.7689 10.4625 49.8874 10.4924L50.1323 9.52288ZM49.9989 10.5075C51.7625 10.5463 53.4984 10.6011 55.1958 10.6716L55.2372 9.67242C53.5332 9.60172 51.7907 9.54664 50.0208 9.50779L49.9989 10.5075ZM55.1949 10.6715C55.6045 10.6892 55.9909 10.5787 56.3235 10.4068L55.8645 9.51838C55.6536 9.62735 55.4396 9.68115 55.238 9.67245L55.1949 10.6715ZM56.3235 10.4068C58.3854 9.34146 60.6936 8.29528 63.5245 7.14375L63.1478 6.21745C60.2969 7.37706 57.96 8.43567 55.8645 9.51839L56.3235 10.4068ZM63.5245 7.14375C65.4501 6.36054 67.353 5.67463 69.203 5.00972L68.8647 4.06866C67.0167 4.7329 65.0951 5.42536 63.1478 6.21745L63.5245 7.14375ZM69.2031 5.00966L69.2481 4.99347L68.9095 4.05253L68.8646 4.06872L69.2031 5.00966ZM69.2481 4.99347C70.1518 4.6683 71.009 4.35984 71.8667 4.04019L71.5174 3.10315C70.666 3.42049 69.8141 3.72702 68.9095 4.05254L69.2481 4.99347ZM71.8663 4.04031C73.4377 3.45593 74.9619 2.86988 76.7871 2.16352L76.4262 1.23093C74.6017 1.93703 73.0826 2.52109 71.5178 3.10303L71.8663 4.04031ZM76.7866 2.16372C79.2838 1.20041 81.9341 1.28969 84.2568 2.40543L84.6898 1.50403C82.1091 0.264401 79.1714 0.171918 76.4267 1.23073L76.7866 2.16372ZM84.2568 2.40542C85.6055 3.05331 88.0617 4.67423 89.2483 8.24323L90.1972 7.92774C88.8986 4.02169 86.1947 2.22695 84.6898 1.50403L84.2568 2.40542ZM89.2482 8.24312C89.8941 10.1873 90.5906 12.1862 91.2631 14.1162L92.2074 13.7871C91.5345 11.8559 90.8404 9.86391 90.1972 7.92785L89.2482 8.24312ZM91.2631 14.1162L91.2893 14.1914L92.2336 13.8624L92.2074 13.7871L91.2631 14.1162ZM91.2891 14.1907L91.3784 14.4482L92.3232 14.1206L92.2339 13.8631L91.2891 14.1907ZM91.3792 14.4506C91.4444 14.6356 91.5488 14.901 91.6556 15.1708L92.5854 14.8029C92.4764 14.5274 92.3799 14.2815 92.3223 14.1182L91.3792 14.4506ZM91.6549 15.1692C91.6769 15.2253 91.6989 15.2813 91.7208 15.3371L92.6515 14.9712C92.6296 14.9154 92.6078 14.8599 92.5861 14.8045L91.6549 15.1692ZM91.7208 15.337C91.8093 15.5622 91.8958 15.7824 91.9774 16.0017L92.9147 15.6533C92.8294 15.4238 92.7394 15.195 92.6515 14.9713L91.7208 15.337ZM91.978 16.0033C93.3493 19.6544 93.4039 23.5259 92.126 27.524L93.0785 27.8285C94.4198 23.6321 94.3703 19.5287 92.9141 15.6517L91.978 16.0033ZM92.1257 27.5251L92.1062 27.5864L93.0594 27.8887L93.0789 27.8274L92.1257 27.5251ZM92.1061 27.5868C91.8201 28.4911 92.1003 29.4634 92.7791 30.1004L93.4634 29.3713C93.0521 28.9853 92.8948 28.4093 93.0596 27.8883L92.1061 27.5868ZM92.7791 30.1004L93.8424 31.0983L94.5267 30.3692L93.4634 29.3713L92.7791 30.1004ZM93.8424 31.0983C94.3184 31.5451 94.4508 32.2484 94.1699 32.8377L95.0725 33.268C95.5408 32.2859 95.3201 31.1137 94.5267 30.3692L93.8424 31.0983ZM94.1699 32.8377L91.0497 39.3818L91.9524 39.8122L95.0725 33.268L94.1699 32.8377ZM91.0667 39.3493C91.0018 39.4632 90.9359 39.5744 90.8692 39.6827L91.7206 40.2073C91.7936 40.0887 91.8652 39.9677 91.9354 39.8446L91.0667 39.3493ZM90.8692 39.6827C90.739 39.8941 90.6345 40.1224 90.5613 40.3629L91.518 40.6541C91.5654 40.4985 91.6337 40.3484 91.7206 40.2073L90.8692 39.6827ZM90.5613 40.3629C90.4842 40.6162 90.4034 40.8542 90.322 41.0769L91.2612 41.4203C91.3482 41.1822 91.435 40.9267 91.518 40.654L90.5613 40.3629ZM90.322 41.0769C90.2333 41.3193 90.1799 41.5706 90.1584 41.8231L91.1548 41.908C91.1692 41.7391 91.2046 41.575 91.2612 41.4203L90.322 41.0769ZM90.1584 41.8231C90.0507 43.0857 89.702 44.3491 89.1131 45.5429L90.0098 45.9854C90.6534 44.681 91.0364 43.2964 91.1548 41.908L90.1584 41.8231ZM89.1131 45.5429C88.7935 46.1906 88.6984 46.9644 88.9639 47.684L89.9021 47.3378C89.7465 46.9161 89.7912 46.4285 90.0098 45.9854L89.1131 45.5429ZM88.9639 47.684C89.9512 50.3602 90.9414 53.0715 91.8984 55.7761L92.8411 55.4425C91.882 52.7319 90.8901 50.0159 89.9021 47.3378L88.9639 47.684ZM91.8984 55.7761C92.4142 57.2335 93.1446 60.1401 92.2976 63.3309L93.2641 63.5875C94.1843 60.1212 93.3894 56.9917 92.8411 55.4425L91.8984 55.7761ZM92.2975 63.3312C91.465 66.4738 90.5723 69.6115 89.7063 72.6553L90.6682 72.9289C91.5337 69.8866 92.429 66.7401 93.2642 63.5873L92.2975 63.3312ZM89.7063 72.6553L89.679 72.7514L90.6408 73.0251L90.6681 72.9289L89.7063 72.6553ZM89.6791 72.751C89.385 73.7816 89.0928 74.8119 88.8008 75.844L89.763 76.1163C90.055 75.0845 90.3469 74.0549 90.6407 73.0254L89.6791 72.751ZM88.801 75.8433C88.7617 75.9812 88.723 76.1185 88.6844 76.2552C88.6458 76.3921 88.6073 76.5284 88.5685 76.665L89.5303 76.9387C89.5695 76.8008 89.6083 76.6635 89.6468 76.5268C89.6854 76.3899 89.7239 76.2536 89.7628 76.117L88.801 75.8433ZM88.5685 76.6649L88.5598 76.6952L89.5216 76.9691L89.5302 76.9388L88.5685 76.6649ZM88.5598 76.6952C88.3605 77.3951 88.1707 78.0615 87.997 78.7121L88.9632 78.97C89.1343 78.3289 89.3218 77.6707 89.5216 76.9691L88.5598 76.6952ZM87.9969 78.7124C87.0413 82.3032 84.7205 84.0801 83.4291 84.8179L83.9252 85.6861C85.3646 84.8638 87.9174 82.8994 88.9633 78.9696L87.9969 78.7124ZM83.4288 84.8181C81.209 86.0886 78.5936 86.3804 76.0584 85.6302L75.7746 86.5892C78.5632 87.4143 81.4614 87.0964 83.9255 85.6859L83.4288 84.8181ZM76.0582 85.6302C75.2488 85.391 74.4379 85.1576 73.6302 84.9265L73.3552 85.888C74.1621 86.1189 74.9696 86.3513 75.7748 86.5892L76.0582 85.6302ZM73.6304 84.9266C72.7448 84.6728 71.8299 84.4103 70.9135 84.1384L70.629 85.0971C71.5505 85.3705 72.4697 85.6342 73.355 85.8879L73.6304 84.9266ZM70.9137 84.1384C70.24 83.9383 69.5757 83.7338 68.9272 83.5341L68.6329 84.4898C69.2807 84.6893 69.9497 84.8952 70.6289 85.097L70.9137 84.1384ZM68.9272 83.5341C68.8303 83.5042 68.7338 83.4745 68.6377 83.445L68.3436 84.4007C68.4396 84.4303 68.5361 84.46 68.6329 84.4898L68.9272 83.5341ZM68.6383 83.4451L68.4455 83.3856L68.1503 84.341L68.3431 84.4006L68.6383 83.4451ZM68.4455 83.3856C68.0934 83.2767 67.7443 83.1689 67.3994 83.0635L67.1072 84.0199C67.4504 84.1247 67.7979 84.2321 68.1503 84.341L68.4455 83.3856ZM67.3994 83.0635C66.7766 82.8732 66.1025 82.9363 65.5261 83.2439L65.9967 84.1262C66.337 83.9447 66.7364 83.9066 67.1072 84.0199L67.3994 83.0635ZM65.5261 83.2439C64.5551 83.7618 63.5849 84.3073 62.6558 84.884L63.1831 85.7336C64.0882 85.1719 65.0382 84.6375 65.9967 84.1262L65.5261 83.2439ZM62.656 84.8838C62.1639 85.1889 61.4184 85.8464 60.7487 86.4349L61.4088 87.1861C62.1134 86.5669 62.7803 85.9834 63.1829 85.7338L62.656 84.8838ZM60.7487 86.4349L60.7274 86.4536L61.3875 87.2048L61.4087 87.1861L60.7487 86.4349ZM60.7267 86.4542C60.6436 86.5275 60.5599 86.6009 60.4756 86.6749C60.3916 86.7486 60.3069 86.8229 60.2226 86.8973L60.8841 87.6472C60.9672 87.5739 61.0509 87.5005 61.1351 87.4266C61.2192 87.3528 61.3039 87.2785 61.3882 87.2041L60.7267 86.4542ZM60.2247 86.8954C56.7241 89.9481 52.7055 91.5 48.4436 91.5V92.5C52.9654 92.5 57.2134 90.8483 60.882 87.6491L60.2247 86.8954ZM48.4436 92.5H48.4454V91.5H48.4436V92.5ZM48.4454 91.5C48.2207 91.5 47.9952 91.4957 47.7689 91.487L47.7306 92.4863C47.9696 92.4954 48.2078 92.5 48.4454 92.5V91.5Z"
    fill="url(#paint1_linear_6599_35126)"
  />
  <defs>
    <linearGradient
      id="paint0_linear_6599_35126"
      x1="60.1847"
      y1="-81.4336"
      x2="-57.3085"
      y2="-43.8714"
      gradientUnits="userSpaceOnUse"
    >
      <stop stop-color="#F26F56" />
      <stop offset="1" stop-color="#F49756" />
    </linearGradient>
    <linearGradient
      id="paint1_linear_6599_35126"
      x1="60.1847"
      y1="-81.4336"
      x2="-57.3085"
      y2="-43.8714"
      gradientUnits="userSpaceOnUse"
    >
      <stop stop-color="#F26F56" />
      <stop offset="1" stop-color="#F49756" />
    </linearGradient>
  </defs>
</svg>
