<svg width="227" height="48" viewBox="0 0 227 48" fill="none" xmlns="http://www.w3.org/2000/svg">
<path d="M0 20.3215C0 23.3907 2.74321 24.911 8.44065 24.911H12.3444C15.9317 24.911 18.3584 24.2799 19.6773 23.0752L20.5741 24.7676H26.9573V12.8922H13.3468V15.6172H14.9294V21.2394C14.9294 21.6696 14.1908 22.0139 13.3995 22.0139C12.661 22.0139 12.0279 21.6696 12.0279 21.2394V4.37291C12.0279 3.97133 12.661 3.62711 13.3995 3.62711C14.1908 3.62711 14.9294 3.97133 14.9294 4.37291V9.07716H26.9573V5.3195C26.9573 2.22157 24.1614 0.72998 18.5167 0.72998H8.44065C2.74321 0.72998 0 2.22157 0 5.3195V20.3215Z" fill="#2B2B2B"/>
<path d="M33.3801 0.873403L27.6299 24.7676H38.4973L39.7106 19.3462H44.353L45.3553 24.7676H57.4887L52.4243 0.873403H33.3801ZM40.1326 16.2483L42.4011 4.43028L43.8254 16.2483H40.1326Z" fill="#2B2B2B"/>
<path d="M58.1428 0.873403V24.7676H76.1319V21.3828H70.1707V0.873403H58.1428Z" fill="#2B2B2B"/>
<path d="M82.5588 0.873403L76.8086 24.7676H87.676L88.8893 19.3462H93.5317L94.534 24.7676H106.667L101.603 0.873403H82.5588ZM89.3114 16.2483L91.5798 4.43028L93.0041 16.2483H89.3114Z" fill="#2B2B2B"/>
<path d="M134.279 15.3877H122.251V21.2394C122.251 21.6696 121.512 22.0139 120.721 22.0139C119.982 22.0139 119.349 21.6696 119.349 21.2394V4.37291C119.349 3.97133 119.982 3.62711 120.721 3.62711C121.512 3.62711 122.251 3.97133 122.251 4.37291V9.07716H134.279V5.3195C134.279 2.22157 131.483 0.72998 125.838 0.72998H115.762C110.065 0.72998 107.322 2.22157 107.322 5.3195V20.3215C107.322 23.3907 110.065 24.911 115.762 24.911H125.838C131.483 24.911 134.279 23.3907 134.279 20.3215V15.3877Z" fill="#2B2B2B"/>
<path d="M134.688 0.873403V4.31554H138.908V24.7676H150.936V4.31554H155.156V0.873403H134.688Z" fill="#2B2B2B"/>
<path d="M167.652 0.873403H155.624V24.7676H167.652V0.873403Z" fill="#2B2B2B"/>
<path d="M196.327 15.3877H184.299V21.2394C184.299 21.6696 183.56 22.0139 182.769 22.0139C182.03 22.0139 181.397 21.6696 181.397 21.2394V4.37291C181.397 3.97133 182.03 3.62711 182.769 3.62711C183.56 3.62711 184.299 3.97133 184.299 4.37291V9.07716H196.327V5.3195C196.327 2.22157 193.531 0.72998 187.886 0.72998H177.81C172.113 0.72998 169.369 2.22157 169.369 5.3195V20.3215C169.369 23.3907 172.113 24.911 177.81 24.911H187.886C193.531 24.911 196.327 23.3907 196.327 20.3215V15.3877Z" fill="#2B2B2B"/>
<path d="M202.749 0.873403L196.999 24.7676H207.867L209.08 19.3462H213.722L214.725 24.7676H226.858L221.794 0.873403H202.749ZM209.502 16.2483L211.77 4.43028L213.195 16.2483H209.502Z" fill="#2B2B2B"/>
<path d="M69.6648 35.3454H61.7266V47.8555H66.2321V43.3501C66.2321 42.2237 66.0443 40.5116 66.0443 40.5116L68.3775 47.8555H76.3963V35.3454H71.8639V38.4391C71.8639 39.5655 72.0785 43.1699 72.0785 43.1699L69.6648 35.3454Z" fill="#2B2B2B"/>
<path d="M77.2781 35.3454V47.8555H86.8791V46.0834H83.3927V42.2387H86.8791V40.4666H83.3927V37.1175H86.8791V35.3454H77.2781Z" fill="#2B2B2B"/>
<path d="M87.1046 35.3454V37.1475H89.25V47.8555H95.3646V37.1475H97.5101V35.3454H87.1046Z" fill="#2B2B2B"/>
<path d="M121.804 35.3454H116.521L115.502 40.2113C115.287 41.2926 115.019 43.6354 115.019 43.6354C115.019 43.6354 114.832 41.3076 114.644 40.1962L113.812 35.3454H105.981L104.989 40.0911C104.748 41.3076 104.48 43.9808 104.48 43.9808C104.48 43.9808 104.265 41.2926 104.05 40.1061L103.139 35.3454H97.0777L99.5718 47.8555H107.832L109.361 39.19L110.755 47.8555H118.908L121.804 35.3454Z" fill="#2B2B2B"/>
<path d="M129.611 37.1776V46.0083C129.611 46.2336 129.235 46.4138 128.833 46.4138C128.457 46.4138 128.136 46.2336 128.136 46.0083V37.1776C128.136 36.9673 128.457 36.7871 128.833 36.7871C129.235 36.7871 129.611 36.9673 129.611 37.1776ZM122.021 37.6732V45.5277C122.021 47.1347 123.415 47.9306 126.312 47.9306H131.434C134.304 47.9306 135.725 47.1347 135.725 45.5277V37.6732C135.725 36.0512 134.304 35.2703 131.434 35.2703H126.312C123.415 35.2703 122.021 36.0512 122.021 37.6732Z" fill="#2B2B2B"/>
<path d="M144.193 37.1025V40.2864C144.193 40.5116 143.844 40.6918 143.442 40.6918H142.718V36.682H143.442C143.844 36.682 144.193 36.8772 144.193 37.1025ZM150.308 39.3252V37.7483C150.308 36.1263 148.886 35.3454 146.017 35.3454H136.603V47.8555H142.718V42.1036H143.442C143.844 42.1036 144.193 42.2988 144.193 42.5091V47.0295C144.193 47.3599 144.247 47.5702 144.595 47.8555H150.71C150.388 47.5702 150.308 47.3599 150.308 47.0295V43.8006C150.308 42.8395 150.308 41.9233 148.216 41.4578C150.147 40.9772 150.308 40.2113 150.308 39.3252Z" fill="#2B2B2B"/>
<path d="M157.301 35.3454H151.186V47.8555H157.301V42.3739L159.097 47.8555H165.078L162.798 40.6618L165.132 35.3454H159.473L157.301 40.016V35.3454Z" fill="#2B2B2B"/>
</svg>
